<svg width="50" height="50" viewBox="0 0 50 50" fill="none" xmlns="http://www.w3.org/2000/svg">
<rect width="50" height="50" rx="25" fill="#76AC3C"/>
<path d="M27.75 13.5938C26.2167 13.5938 24.7462 14.2029 23.662 15.2871C22.5778 16.3713 21.9687 17.8418 21.9687 19.3751V22.5938H18.875C18.7197 22.5938 18.5938 22.7197 18.5938 22.8751V27.1251C18.5938 27.2804 18.7197 27.4063 18.875 27.4063H21.9687V36.1251C21.9687 36.2804 22.0947 36.4063 22.25 36.4063H26.5C26.6553 36.4063 26.7812 36.2804 26.7812 36.1251V27.4063H29.9024C30.0315 27.4063 30.144 27.3185 30.1753 27.1933L31.2378 22.9433C31.2821 22.7658 31.1479 22.5938 30.9649 22.5938H26.7812V19.3751C26.7812 19.1181 26.8833 18.8717 27.065 18.6901C27.2467 18.5084 27.4931 18.4063 27.75 18.4063H31C31.1553 18.4063 31.2812 18.2804 31.2812 18.1251V13.8751C31.2812 13.7197 31.1553 13.5938 31 13.5938H27.75Z" fill="#0B3434"/>
</svg>
