<svg width="245" height="79" viewBox="0 0 245 79" fill="none" xmlns="http://www.w3.org/2000/svg">
<path fill-rule="evenodd" clip-rule="evenodd" d="M70.4115 26.6248C47.7682 32.7831 30.8693 53.4633 30.8693 78.0335H36.7896C36.7896 55.3547 53.0236 36.3935 74.3228 31.7601C73.0918 29.9912 71.7866 28.2779 70.4115 26.6248Z" fill="#76AC3C"/>
<path fill-rule="evenodd" clip-rule="evenodd" d="M1.76025 48.732C17.855 48.835 30.8704 61.914 30.8704 78.033H36.79C36.79 59.2283 22.0531 43.8656 3.49834 42.8638C2.8418 44.7858 2.26124 46.7431 1.76025 48.732Z" fill="#76AC3C"/>
<path fill-rule="evenodd" clip-rule="evenodd" d="M81.1756 43.8679C72.4185 46.0645 64.9623 51.5379 60.1871 58.9097C61.1402 61.6711 61.8957 64.5247 62.4367 67.4534C65.9346 58.4219 73.7794 51.555 83.4035 49.4236C82.7333 47.5357 81.9895 45.6827 81.1756 43.8679ZM54.5491 78.0323C54.5491 74.1805 55.1672 70.4733 56.3098 67.0045C57.0753 70.562 57.4876 74.2508 57.508 78.0323H54.5491Z" fill="#76AC3C"/>
<path fill-rule="evenodd" clip-rule="evenodd" d="M53.8586 11.8401C43.6248 16.4751 34.6812 23.4543 27.712 32.0932C29.5509 32.9375 31.3395 33.8729 33.0721 34.8937C40.0745 26.5271 49.1299 19.937 59.4615 15.9002C57.6598 14.4636 55.7903 13.1084 53.8586 11.8401Z" fill="#76AC3C"/>
<path d="M29.4549 39.639C26.8642 43.3777 24.6532 47.3992 22.8779 51.6479L17.416 49.3655C19.2419 44.9959 21.4899 40.8469 24.1091 36.9695C25.9462 37.7616 27.7304 38.6537 29.4549 39.639Z" fill="#76AC3C"/>
<path fill-rule="evenodd" clip-rule="evenodd" d="M47.9268 0.744273C50.2581 1.37868 52.1593 3.26606 52.6904 5.79282C53.2213 8.31909 52.2412 10.8117 50.3633 12.331C48.0321 11.6966 46.1308 9.80918 45.5998 7.28242C45.0688 4.75615 46.0489 2.26358 47.9268 0.744273Z" fill="#76AC3C"/>
<path fill-rule="evenodd" clip-rule="evenodd" d="M5.17838 41.6168C6.37659 40.5356 7.0222 38.5982 6.71864 36.5161C6.41519 34.4349 5.24413 32.763 3.7879 32.0685C2.58968 33.1497 1.94407 35.087 2.24763 37.1691C2.55108 39.2504 3.72215 40.9222 5.17838 41.6168Z" fill="#76AC3C"/>
<path fill-rule="evenodd" clip-rule="evenodd" d="M66.0173 22.6032C64.6672 23.2963 62.7033 23.2214 60.8965 22.2663C59.0924 21.3126 57.9253 19.7352 57.735 18.2312C59.0852 17.5381 61.0491 17.613 62.8558 18.5681C64.6599 19.5217 65.8271 21.0992 66.0173 22.6032Z" fill="#76AC3C"/>
<path fill-rule="evenodd" clip-rule="evenodd" d="M8.90674 30.7065C34.2656 31.6102 54.5461 52.4528 54.5461 78.0322H60.4656C60.4656 50.3739 39.3892 27.6382 12.421 25.01C11.168 26.8517 9.99486 28.7522 8.90674 30.7065Z" fill="#76AC3C"/>
<path fill-rule="evenodd" clip-rule="evenodd" d="M95.3116 54.3645L105.196 35.9817H107.714L117.452 54.1881V35.2581H120.205V45.8844L128.874 40.8057H135.608V54.3645H129.531L122.45 47.66L120.205 48.9505V54.3645H114.438L112.098 50.0952H100.765L98.449 54.3645H95.3116ZM124.801 46.2349L132.855 53.7823V41.5266L124.801 46.2349ZM154.043 54.3645H151.29V47.1147C151.29 45.7729 150.829 44.7788 150.036 44.1077C149.226 43.4229 147.986 43.004 146.311 43.004C144.165 43.004 142.551 43.5743 141.481 44.534C140.422 45.4846 139.813 46.893 139.813 48.7549V54.3645H137.06V40.8057H139.692L139.76 42.7965C141.291 41.1867 143.693 40.3233 146.48 40.3233C148.743 40.3233 150.64 40.9081 151.983 42.075C153.339 43.2535 154.043 44.9525 154.043 46.9941V54.3645ZM167.891 45.6874L165.272 46.5253L165.203 45.6257C165.131 44.6844 164.789 44.0529 164.317 43.6502C163.838 43.2405 163.148 43.004 162.272 43.004C160.921 43.004 159.851 43.5094 159.108 44.365C158.358 45.2305 157.896 46.5115 157.896 48.1278V54.3645H155.143V40.8057H157.782L157.816 42.1672C158.977 40.9791 160.581 40.3233 162.393 40.3233C163.813 40.3233 165.097 40.7159 166.076 41.5443C167.061 42.3775 167.669 43.5945 167.829 45.1098L167.891 45.6874ZM168.803 54.3645V40.8057H171.556V54.3645H168.803ZM189.992 54.3645H187.239V47.1147C187.239 45.7729 186.777 44.7788 185.984 44.1077C185.174 43.4229 183.934 43.004 182.259 43.004C180.113 43.004 178.499 43.5743 177.429 44.534C176.37 45.4846 175.761 46.893 175.761 48.7549V54.3645H173.008V40.8057H175.64L175.709 42.7965C177.24 41.1867 179.641 40.3233 182.428 40.3233C184.691 40.3233 186.589 40.9081 187.931 42.075C189.287 43.2535 189.992 44.9525 189.992 46.9941V54.3645ZM191.091 54.3645V40.8057H193.725L193.778 42.4538C195.177 41.0759 197.247 40.3233 199.619 40.3233C202.338 40.3233 204.506 41.3692 205.631 43.2371C207.1 41.2794 209.606 40.3233 212.282 40.3233C214.352 40.3233 216.08 40.8962 217.301 41.9845C218.53 43.0807 219.17 44.6351 219.17 46.4394V54.3645H216.417V46.6564C216.417 45.4542 216.012 44.5726 215.331 43.9813C214.635 43.3782 213.566 43.004 212.113 43.004C210.261 43.004 208.87 43.5411 207.949 44.4057C207.033 45.2661 206.507 46.5192 206.507 48.1036V54.3645H203.754V46.6564C203.754 45.4542 203.349 44.5726 202.668 43.9813C201.972 43.3782 200.903 43.004 199.45 43.004C197.586 43.004 196.197 43.5115 195.282 44.3558C194.374 45.193 193.844 46.4404 193.844 48.1036V54.3645H191.091ZM220.486 54.3645V40.8057H223.239V54.3645H220.486ZM224.205 49.148L226.674 47.9133L226.891 48.7732C227.12 49.6787 227.82 50.5271 228.957 51.1623C230.091 51.796 231.619 52.1903 233.387 52.1903C234.838 52.1903 236.066 51.9412 236.9 51.5518C237.766 51.1474 238.01 50.7035 238.005 50.3824L238.005 50.3767V50.3709C238.005 50.1317 237.899 49.8689 237.34 49.5882C236.754 49.2941 235.809 49.0638 234.446 48.9094C234.444 48.9092 234.443 48.909 234.441 48.9088L231.285 48.5957C229.69 48.4239 228.309 48.1099 227.309 47.5337C226.261 46.9299 225.607 46.0156 225.607 44.751V44.7434C225.622 43.3173 226.409 42.1845 227.6 41.4389C228.776 40.7032 230.365 40.3233 232.133 40.3233C233.721 40.3233 235.251 40.6839 236.522 41.3028C237.785 41.9179 238.841 42.8145 239.403 43.9222L239.69 44.4898L237.431 45.979L237.069 45.2668C236.439 44.026 234.488 42.9557 232.133 42.9557C230.939 42.9557 229.946 43.1939 229.277 43.5525C228.602 43.9144 228.369 44.324 228.36 44.661C228.361 44.8074 228.398 44.9036 228.458 44.9853C228.527 45.079 228.659 45.1958 228.911 45.3185C229.434 45.5724 230.293 45.7677 231.586 45.9235C231.588 45.9238 231.59 45.924 231.591 45.9242L234.817 46.2611L234.821 46.2616C236.49 46.4565 237.937 46.7695 238.981 47.3589C239.514 47.6597 239.966 48.0455 240.283 48.5456C240.602 49.0494 240.757 49.6283 240.758 50.2707C240.758 50.2719 240.758 50.2732 240.758 50.2744L240.758 50.2672L240.758 50.2707C240.772 51.7867 239.858 52.9568 238.53 53.7107C237.212 54.4591 235.422 54.8469 233.436 54.8469C231.197 54.8469 229.151 54.3354 227.554 53.4487C225.962 52.565 224.766 51.2765 224.352 49.7085L224.205 49.148ZM241.837 54.3645V40.8057H244.59V54.3645H241.837ZM102.201 47.3904H110.683L106.442 39.4008L102.201 47.3904ZM132.949 39.2434C132.615 38.909 132.445 38.4557 132.445 37.9732C132.445 37.4908 132.615 37.0375 132.949 36.7031C133.284 36.3687 133.737 36.1987 134.219 36.1987C134.707 36.1987 135.166 36.3641 135.507 36.6991C135.848 37.0347 136.018 37.4905 136.018 37.9732C136.018 38.456 135.848 38.9118 135.507 39.2474C135.166 39.5824 134.707 39.7478 134.219 39.7478C133.737 39.7478 133.284 39.5778 132.949 39.2434ZM168.897 39.2434C168.563 38.909 168.393 38.4557 168.393 37.9732C168.393 37.4908 168.563 37.0375 168.897 36.7031C169.232 36.3687 169.685 36.1987 170.168 36.1987C170.655 36.1987 171.114 36.3641 171.455 36.6991C171.796 37.0347 171.966 37.4905 171.966 37.9732C171.966 38.456 171.796 38.9118 171.455 39.2474C171.114 39.5824 170.655 39.7478 170.168 39.7478C169.685 39.7478 169.232 39.5778 168.897 39.2434ZM220.58 39.2434C220.246 38.909 220.076 38.4557 220.076 37.9732C220.076 37.4908 220.246 37.0375 220.58 36.7031C220.915 36.3687 221.368 36.1987 221.85 36.1987C222.338 36.1987 222.797 36.3641 223.138 36.6991C223.479 37.0347 223.649 37.4905 223.649 37.9732C223.649 38.456 223.479 38.9118 223.138 39.2474C222.797 39.5824 222.338 39.7478 221.85 39.7478C221.368 39.7478 220.915 39.5778 220.58 39.2434ZM241.931 39.2434C241.597 38.909 241.427 38.4557 241.427 37.9732C241.427 37.4908 241.597 37.0375 241.931 36.7031C242.266 36.3687 242.719 36.1987 243.201 36.1987C243.689 36.1987 244.148 36.3641 244.489 36.6991C244.83 37.0347 245 37.4905 245 37.9732C245 38.456 244.83 38.9118 244.489 39.2474C244.148 39.5824 243.689 39.7478 243.201 39.7478C242.719 39.7478 242.266 39.5778 241.931 39.2434Z" fill="white"/>
<path fill-rule="evenodd" clip-rule="evenodd" d="M96.4865 67.1466V59.537H103.417V60.7577H97.7564V62.7069H102.826V63.9177H97.7564V67.1466H96.4865ZM112.276 61.5059H113.507V64.5182C113.507 65.0525 113.69 65.4424 114 65.7047C114.318 65.9735 114.81 66.1425 115.486 66.1425C116.353 66.1425 116.997 65.9122 117.421 65.5317C117.84 65.1556 118.084 64.5964 118.084 63.8488V61.5059H119.315V67.1466H118.135L118.11 66.4059C117.471 67.0188 116.513 67.3435 115.417 67.3435C114.485 67.3435 113.696 67.1026 113.136 66.6154C112.569 66.1227 112.276 65.4136 112.276 64.5674V61.5059ZM127.237 67.1466H126.006V64.1343C126.006 63.6 125.823 63.2101 125.513 62.9478C125.195 62.6789 124.703 62.51 124.028 62.51C123.161 62.51 122.516 62.7403 122.092 63.1208C121.673 63.4968 121.429 64.0561 121.429 64.8037V67.1466H120.198V61.5059H121.378L121.403 62.2465C122.042 61.6337 123.001 61.309 124.097 61.309C125.029 61.309 125.817 61.5499 126.378 62.0371C126.944 62.5297 127.237 63.2389 127.237 64.085V67.1466ZM134.646 66.4569C133.976 67.027 132.974 67.3435 131.881 67.3435C130.771 67.3435 129.803 67.056 129.102 66.5315C128.395 66.002 127.973 65.2364 127.973 64.3312C127.973 63.4218 128.395 62.6537 129.1 62.1227C129.8 61.5966 130.766 61.309 131.871 61.309C132.953 61.309 133.938 61.6188 134.607 62.1753V59.2417H135.838V67.1466H134.667L134.646 66.4569ZM142.529 66.4863L142.552 67.1466H143.731V63.4944C143.731 62.7661 143.31 62.2069 142.707 61.8463C142.11 61.4896 141.314 61.309 140.463 61.309C139.687 61.309 138.915 61.4622 138.265 61.7196C137.624 61.9736 137.061 62.3451 136.751 62.8111L136.592 63.0495L137.454 63.8875L137.682 63.533C137.846 63.2777 138.207 63.0172 138.726 62.8197C139.236 62.626 139.854 62.51 140.473 62.51C141.131 62.51 141.666 62.6427 142.023 62.8381C142.378 63.0322 142.505 63.2522 142.511 63.4329C142.503 63.4342 142.493 63.4355 142.482 63.4365L142.481 63.4366L139.768 63.6529L139.767 63.6529C138.701 63.7331 137.909 63.9229 137.373 64.2337C136.813 64.558 136.525 65.0228 136.525 65.5912C136.525 66.2076 136.845 66.6686 137.386 66.9542C137.902 67.2266 138.62 67.3435 139.479 67.3435C140.276 67.3435 141.043 67.1988 141.679 66.9463C141.991 66.8224 142.281 66.6686 142.529 66.4863ZM147.244 62.6773V65.1225C147.239 65.5101 147.342 65.7577 147.488 65.9083C147.634 66.058 147.873 66.1622 148.248 66.1622C148.827 66.1622 149.346 65.7965 149.514 65.27L149.639 64.88L150.742 65.4544L150.639 65.7379C150.29 66.705 149.303 67.3435 148.238 67.3435C147.568 67.3435 146.997 67.1618 146.594 66.7641C146.191 66.3656 146.008 65.8003 146.013 65.1372V62.6773H144.172V61.5059H146.003V59.9965L147.244 59.6864V61.5059H150.542V62.6773H147.244ZM151.528 67.1466V61.5059H152.758V67.1466H151.528ZM169.339 67.1466H168.109V64.1343C168.109 63.6 167.926 63.2101 167.616 62.9478C167.298 62.6789 166.805 62.51 166.13 62.51C165.263 62.51 164.618 62.7403 164.194 63.1208C163.776 63.4968 163.531 64.0561 163.531 64.8037V67.1466H162.301V61.5059H163.48L163.506 62.2465C164.145 61.6337 165.103 61.309 166.199 61.309C167.131 61.309 167.92 61.5499 168.48 62.0371C169.047 62.5297 169.339 63.2389 169.339 64.085V67.1466ZM104.786 66.5473C104.075 66.0199 103.662 65.252 103.662 64.3312C103.662 63.4106 104.074 62.6405 104.785 62.1106C105.488 61.5872 106.465 61.309 107.6 61.309C108.74 61.309 109.717 61.5871 110.419 62.1108C111.129 62.6411 111.538 63.4114 111.538 64.3312C111.538 65.2512 111.129 66.0192 110.418 66.5471C109.716 67.0682 108.739 67.3435 107.6 67.3435C106.466 67.3435 105.489 67.068 104.786 66.5473ZM109.617 65.6239C110.066 65.3057 110.307 64.8656 110.307 64.3312C110.307 63.7967 110.066 63.3566 109.617 63.0384C109.158 62.7134 108.472 62.51 107.6 62.51C106.728 62.51 106.042 62.7134 105.583 63.0384C105.134 63.3566 104.893 63.7967 104.893 64.3312C104.893 64.8656 105.134 65.3057 105.583 65.6239C106.042 65.9489 106.728 66.1523 107.6 66.1523C108.472 66.1523 109.158 65.9489 109.617 65.6239ZM133.912 65.6095C134.371 65.2824 134.617 64.8398 134.617 64.3312C134.617 63.817 134.371 63.3748 133.912 63.0494C133.447 62.719 132.758 62.51 131.91 62.51C131.067 62.51 130.379 62.7189 129.912 63.0496C129.451 63.3756 129.203 63.818 129.203 64.3312C129.203 64.8389 129.45 65.2816 129.912 65.6093C130.38 65.9413 131.068 66.1523 131.91 66.1523C132.758 66.1523 133.446 65.9412 133.912 65.6095ZM142.501 64.6048C142.493 64.9893 142.247 65.3687 141.723 65.6705C141.193 65.9763 140.419 66.172 139.498 66.172C138.821 66.172 138.359 66.0911 138.078 65.9623C137.942 65.8997 137.864 65.8328 137.82 65.7731C137.779 65.7171 137.756 65.6511 137.756 65.5617C137.756 65.4533 137.807 65.3085 138.125 65.1562C138.452 64.9994 138.992 64.8754 139.801 64.8125L142.501 64.6048ZM151.582 60.9595C151.434 60.812 151.36 60.6129 151.36 60.4033C151.36 60.1938 151.434 59.9947 151.582 59.8471C151.729 59.6996 151.928 59.6256 152.138 59.6256C152.349 59.6256 152.551 59.6974 152.701 59.8452C152.851 59.9933 152.925 60.1936 152.925 60.4033C152.925 60.613 152.851 60.8133 152.701 60.9614C152.551 61.1093 152.349 61.181 152.138 61.181C151.928 61.181 151.729 61.107 151.582 60.9595ZM154.761 66.5473C154.05 66.0199 153.637 65.252 153.637 64.3312C153.637 63.4106 154.049 62.6405 154.761 62.1106C155.463 61.5872 156.44 61.309 157.575 61.309C158.715 61.309 159.692 61.5871 160.394 62.1108C161.104 62.6411 161.513 63.4114 161.513 64.3312C161.513 65.2512 161.104 66.0192 160.393 66.5471C159.691 67.0682 158.714 67.3435 157.575 67.3435C156.441 67.3435 155.464 67.068 154.761 66.5473ZM159.592 65.6239C160.041 65.3057 160.282 64.8656 160.282 64.3312C160.282 63.7967 160.041 63.3566 159.592 63.0384C159.134 62.7134 158.447 62.51 157.575 62.51C156.703 62.51 156.017 62.7134 155.558 63.0384C155.109 63.3566 154.868 63.7967 154.868 64.3312C154.868 64.8656 155.109 65.3057 155.558 65.6239C156.017 65.9489 156.703 66.1523 157.575 66.1523C158.447 66.1523 159.134 65.9489 159.592 65.6239Z" fill="white"/>
<path fill-rule="evenodd" clip-rule="evenodd" d="M219.346 29.5576C217.892 31.073 215.744 31.9299 213.331 31.9299C210.974 31.9299 208.921 31.1877 207.449 29.8108C205.973 28.4293 205.14 26.4607 205.14 24.1254V17.4062H207.917V24.0289C207.917 25.6625 208.49 26.9577 209.428 27.8468C210.37 28.7396 211.735 29.2733 213.403 29.2733C215.222 29.2733 216.71 28.6769 217.739 27.6657C218.767 26.6562 219.395 25.178 219.395 23.3053V17.4062H222.124V29.0458C222.124 31.358 221.177 33.2572 219.496 34.5602C217.835 35.8479 215.512 36.5127 212.8 36.5127C208.769 36.5127 205.498 34.8502 203.51 33.1589L203.5 33.1505L202.956 32.6531C201.989 31.768 201.385 30.5685 201.238 29.2854C200.618 29.7616 199.877 30.163 199.069 30.4836C197.528 31.0956 195.665 31.4475 193.726 31.4475C191.631 31.4475 189.896 31.1615 188.659 30.5087C187.371 29.8288 186.621 28.7406 186.621 27.2851C186.621 25.9456 187.296 24.847 188.631 24.0722C189.919 23.3254 191.837 22.8624 194.443 22.6665L194.444 22.6664L201.093 22.1364L201.095 22.1362C201.201 22.1269 201.256 22.1085 201.28 22.0978C201.283 22.0839 201.286 22.0611 201.286 22.0269C201.286 21.5116 200.934 20.923 200.023 20.4246C199.123 19.9326 197.789 19.6045 196.162 19.6045C194.629 19.6045 193.099 19.8915 191.836 20.372C190.552 20.8604 189.636 21.5119 189.212 22.1714L188.741 22.9051L186.822 21.0394L187.151 20.5459C187.891 19.4354 189.241 18.5382 190.801 17.9206C192.378 17.2963 194.252 16.9238 196.138 16.9238C198.205 16.9238 200.132 17.3632 201.569 18.2218C203.019 19.0885 204.015 20.421 204.015 22.1475V22.1536L203.964 28.1211C203.954 29.2419 204.419 30.3145 205.244 31.0735L205.249 31.078C207.07 32.4457 209.61 33.8561 212.8 33.8561C214.906 33.8561 216.56 33.3601 217.67 32.5299C218.63 31.8113 219.221 30.8159 219.346 29.5576ZM96.4865 30.9651V12.5822H113.205V15.3112H99.336V20.3489H111.758V23.0537H99.336V30.9651H96.4865ZM113.242 17.4062H115.995V24.656C115.995 25.9978 116.457 26.9919 117.25 27.6631C118.06 28.3478 119.3 28.7668 120.974 28.7668C123.121 28.7668 124.735 28.1965 125.804 27.2367C126.864 26.2861 127.473 24.8777 127.473 23.0158V17.4062H130.226V30.9651H127.594L127.525 28.9743C125.994 30.5841 123.593 31.4475 120.806 31.4475C118.543 31.4475 116.645 30.8627 115.303 29.6957C113.947 28.5172 113.242 26.8182 113.242 24.7766V17.4062ZM148.43 30.9651H145.677V23.7153C145.677 22.3735 145.216 21.3794 144.422 20.7082C143.613 20.0235 142.373 19.6045 140.698 19.6045C138.551 19.6045 136.937 20.1749 135.868 21.1346C134.809 22.0852 134.199 23.4936 134.199 25.3555V30.9651H131.446V17.4062H134.079L134.147 19.3971C135.678 17.7872 138.079 16.9238 140.867 16.9238C143.129 16.9238 145.027 17.5086 146.37 18.6756C147.726 19.8541 148.43 21.5531 148.43 23.5947V30.9651ZM149.53 30.9651V17.4062H152.164L152.216 19.0544C153.615 17.6765 155.686 16.9238 158.058 16.9238C160.777 16.9238 162.945 17.9698 164.069 19.8377C165.539 17.88 168.045 16.9238 170.721 16.9238C172.79 16.9238 174.519 17.4967 175.739 18.5851C176.968 19.6813 177.609 21.2357 177.609 23.04V30.9651H174.856V23.257C174.856 22.0548 174.451 21.1732 173.769 20.5819C173.074 19.9788 172.005 19.6045 170.552 19.6045C168.699 19.6045 167.309 20.1417 166.388 21.0063C165.471 21.8666 164.946 23.1198 164.946 24.7042V30.9651H162.193V23.257C162.193 22.0548 161.788 21.1732 161.106 20.5819C160.411 19.9788 159.342 19.6045 157.889 19.6045C156.024 19.6045 154.636 20.1121 153.72 20.9563C152.812 21.7936 152.283 23.041 152.283 24.7042V30.9651H149.53ZM178.924 30.9651V17.4062H181.678V30.9651H178.924ZM183.129 30.9651V11.8586H185.882V30.9651H183.129ZM179.019 15.844C178.684 15.5096 178.514 15.0563 178.514 14.5738C178.514 14.0914 178.684 13.6381 179.019 13.3037C179.353 12.9693 179.807 12.7993 180.289 12.7993C180.776 12.7993 181.236 12.9647 181.576 13.2997C181.917 13.6353 182.088 14.091 182.088 14.5738C182.088 15.0566 181.917 15.5124 181.576 15.848C181.236 16.183 180.776 16.3483 180.289 16.3483C179.807 16.3483 179.353 16.1784 179.019 15.844ZM199.291 27.5928C200.618 26.8279 201.262 25.8448 201.262 24.8248V24.7267L194.505 25.2465C192.519 25.4011 191.177 25.7063 190.353 26.1012C189.549 26.4866 189.374 26.878 189.374 27.2127C189.374 27.4578 189.439 27.647 189.557 27.808C189.681 27.977 189.892 28.1534 190.24 28.3133C190.953 28.6408 192.108 28.8391 193.774 28.8391C196.047 28.8391 197.967 28.3563 199.291 27.5928ZM225.8 29.5224C224.089 28.2538 223.1 26.4108 223.1 24.1977C223.1 21.9852 224.088 20.1367 225.799 18.8621C227.491 17.6008 229.855 16.9238 232.617 16.9238C235.389 16.9238 237.754 17.6005 239.444 18.8625C241.153 20.138 242.134 21.9869 242.134 24.1977C242.134 26.4091 241.152 28.2525 239.443 29.522C237.752 30.7775 235.388 31.4475 232.617 31.4475C229.857 31.4475 227.493 30.7772 225.8 29.5224ZM237.634 27.4721C238.766 26.6697 239.381 25.553 239.381 24.1977C239.381 22.8425 238.766 21.7257 237.634 20.9234C236.483 20.1069 234.771 19.6045 232.617 19.6045C230.462 19.6045 228.751 20.1069 227.599 20.9234C226.467 21.7257 225.853 22.8425 225.853 24.1977C225.853 25.553 226.467 26.6697 227.599 27.4721C228.751 28.2885 230.462 28.7909 232.617 28.7909C234.771 28.7909 236.483 28.2885 237.634 27.4721Z" fill="white"/>
<path fill-rule="evenodd" clip-rule="evenodd" d="M193.599 16.7538L192.656 14.714L199.159 11.4278L200.214 13.4483L193.599 16.7538Z" fill="white"/>
</svg>
