<svg width="207" height="66" viewBox="0 0 207 66" fill="none" xmlns="http://www.w3.org/2000/svg">
<path fill-rule="evenodd" clip-rule="evenodd" d="M59.5074 22.8436C40.4952 28.0143 26.3062 45.3783 26.3062 66.0085H31.2771C31.2771 46.9664 44.9078 31.0459 62.7915 27.1554C61.758 25.6702 60.662 24.2316 59.5074 22.8436Z" fill="#76AC3C"/>
<path fill-rule="evenodd" clip-rule="evenodd" d="M1.86475 41.4058C15.3785 41.4923 26.3068 52.474 26.3068 66.0082H31.2771C31.2771 50.219 18.9034 37.3198 3.32412 36.4786C2.77287 38.0925 2.2854 39.7358 1.86475 41.4058Z" fill="#76AC3C"/>
<path fill-rule="evenodd" clip-rule="evenodd" d="M68.5445 37.3219C61.1918 39.1663 54.9314 43.762 50.9219 49.9516C51.7222 52.2702 52.3565 54.6661 52.8108 57.1252C55.7478 49.5421 62.3345 43.7764 70.4152 41.9867C69.8525 40.4015 69.2279 38.8456 68.5445 37.3219ZM46.188 66.0077C46.188 62.7735 46.707 59.6608 47.6664 56.7483C48.3091 59.7353 48.6553 62.8326 48.6725 66.0077H46.188Z" fill="#76AC3C"/>
<path fill-rule="evenodd" clip-rule="evenodd" d="M45.6086 10.4297C37.0158 14.3214 29.5064 20.1814 23.6548 27.4351C25.1987 28.144 26.7006 28.9294 28.1553 29.7865C34.0348 22.7615 41.6382 17.2282 50.3131 13.8387C48.8003 12.6324 47.2306 11.4945 45.6086 10.4297Z" fill="#76AC3C"/>
<path d="M25.1182 33.7709C22.9429 36.91 21.0864 40.2867 19.5958 43.854L15.0098 41.9377C16.5429 38.2688 18.4304 34.7851 20.6295 31.5294C22.172 32.1946 23.6702 32.9436 25.1182 33.7709Z" fill="#76AC3C"/>
<path fill-rule="evenodd" clip-rule="evenodd" d="M42.6739 10.842C40.7165 10.3093 39.1201 8.72457 38.6742 6.60297C38.2284 4.48182 39.0513 2.38896 40.628 1.11328C42.5855 1.64595 44.1819 3.23068 44.6278 5.35227C45.0736 7.47342 44.2507 9.56629 42.6739 10.842Z" fill="#76AC3C"/>
<path fill-rule="evenodd" clip-rule="evenodd" d="M4.73471 35.4317C5.74084 34.5239 6.28296 32.8972 6.02807 31.149C5.77328 29.4015 4.79001 27.9977 3.56731 27.4145C2.56118 28.3223 2.01906 29.949 2.27395 31.6973C2.52874 33.4448 3.51201 34.8485 4.73471 35.4317Z" fill="#76AC3C"/>
<path fill-rule="evenodd" clip-rule="evenodd" d="M55.8176 19.467C54.6839 20.0489 53.0349 19.986 51.5179 19.1841C50.0031 18.3833 49.023 17.0588 48.8633 15.7959C49.997 15.214 51.646 15.2768 53.163 16.0788C54.6778 16.8795 55.6579 18.2041 55.8176 19.467Z" fill="#76AC3C"/>
<path fill-rule="evenodd" clip-rule="evenodd" d="M7.86523 26.2707C29.1576 27.0295 46.1861 44.5298 46.1861 66.0074H51.1563C51.1563 42.7843 33.4596 23.6945 10.816 21.4877C9.76385 23.0341 8.77887 24.6298 7.86523 26.2707Z" fill="#76AC3C"/>
<path fill-rule="evenodd" clip-rule="evenodd" d="M80.4146 46.1348L88.7139 30.6998H90.828L99.0043 45.9867V30.0922H101.316V39.0145L108.595 34.7502H114.249V46.1348H109.146L103.201 40.5054L101.316 41.589V46.1348H96.4737L94.5092 42.5501H84.993L83.0488 46.1348H80.4146ZM105.175 39.3089L111.937 45.6459V35.3556L105.175 39.3089ZM129.728 46.1348H127.417V40.0476C127.417 38.9209 127.029 38.0862 126.363 37.5227C125.683 36.9478 124.642 36.596 123.236 36.596C121.434 36.596 120.078 37.0749 119.181 37.8807C118.291 38.6789 117.779 39.8614 117.779 41.4247V46.1348H115.468V34.7502H117.678L117.736 36.4218C119.021 35.0701 121.037 34.3452 123.378 34.3452C125.277 34.3452 126.871 34.8362 127.998 35.816C129.137 36.8055 129.728 38.2321 129.728 39.9463V46.1348ZM141.355 38.8491L139.156 39.5527L139.098 38.7974C139.038 38.007 138.751 37.4767 138.355 37.1386C137.952 36.7946 137.373 36.596 136.637 36.596C135.503 36.596 134.604 37.0204 133.981 37.7388C133.351 38.4655 132.963 39.541 132.963 40.8982V46.1348H130.651V34.7502H132.867L132.896 35.8934C133.871 34.8959 135.217 34.3452 136.739 34.3452C137.931 34.3452 139.01 34.6748 139.832 35.3704C140.658 36.07 141.168 37.0919 141.304 38.3642L141.355 38.8491ZM142.121 46.1348V34.7502H144.433V46.1348H142.121ZM159.912 46.1348H157.6V40.0476C157.6 38.9209 157.213 38.0862 156.547 37.5227C155.867 36.9478 154.826 36.596 153.42 36.596C151.617 36.596 150.262 37.0749 149.364 37.8807C148.475 38.6789 147.963 39.8614 147.963 41.4247V46.1348H145.652V34.7502H147.862L147.919 36.4218C149.205 35.0701 151.221 34.3452 153.561 34.3452C155.461 34.3452 157.055 34.8362 158.182 35.816C159.32 36.8055 159.912 38.2321 159.912 39.9463V46.1348ZM160.835 46.1348V34.7502H163.047L163.091 36.1341C164.266 34.9771 166.004 34.3452 167.996 34.3452C170.279 34.3452 172.099 35.2234 173.043 36.7918C174.277 35.148 176.381 34.3452 178.628 34.3452C180.365 34.3452 181.817 34.8262 182.842 35.74C183.874 36.6604 184.411 37.9656 184.411 39.4805V46.1348H182.1V39.6628C182.1 38.6533 181.76 37.9131 181.187 37.4166C180.604 36.9102 179.706 36.596 178.486 36.596C176.93 36.596 175.763 37.047 174.99 37.7729C174.22 38.4954 173.779 39.5476 173.779 40.8779V46.1348H171.468V39.6628C171.468 38.6533 171.128 37.9131 170.555 37.4166C169.971 36.9102 169.074 36.596 167.854 36.596C166.288 36.596 165.123 37.0221 164.354 37.731C163.591 38.434 163.147 39.4814 163.147 40.8779V46.1348H160.835ZM185.516 46.1348V34.7502H187.828V46.1348H185.516ZM188.638 41.7548L190.712 40.7181L190.894 41.4401C191.086 42.2004 191.674 42.9128 192.629 43.4461C193.581 43.9781 194.864 44.3092 196.349 44.3092C197.567 44.3092 198.598 44.1001 199.298 43.7731C200.025 43.4336 200.23 43.0608 200.226 42.7913L200.226 42.7864V42.7816C200.226 42.5808 200.137 42.3601 199.667 42.1244C199.176 41.8775 198.382 41.6841 197.237 41.5544C197.236 41.5543 197.235 41.5541 197.233 41.554L194.584 41.2911C193.244 41.1468 192.084 40.8832 191.245 40.3993C190.366 39.8924 189.816 39.1247 189.816 38.0629V38.0565C189.829 36.8591 190.489 35.9079 191.49 35.2819C192.477 34.6642 193.811 34.3452 195.296 34.3452C196.629 34.3452 197.914 34.648 198.981 35.1676C200.041 35.6841 200.928 36.4369 201.399 37.367L201.641 37.8436L199.744 39.0939L199.44 38.496C198.911 37.4541 197.273 36.5555 195.296 36.5555C194.293 36.5555 193.46 36.7555 192.898 37.0566C192.331 37.3604 192.135 37.7043 192.128 37.9873C192.129 38.1103 192.16 38.191 192.21 38.2596C192.268 38.3383 192.379 38.4364 192.591 38.5394C193.029 38.7526 193.751 38.9166 194.836 39.0474C194.838 39.0476 194.839 39.0478 194.841 39.048L197.549 39.3308L197.552 39.3312C198.954 39.4949 200.169 39.7577 201.046 40.2526C201.493 40.5052 201.873 40.8291 202.138 41.249C202.406 41.672 202.537 42.158 202.537 42.6974C202.537 42.6985 202.537 42.6995 202.537 42.7006L202.537 42.6945L202.537 42.6974C202.549 43.9703 201.782 44.9529 200.667 45.5858C199.56 46.2142 198.057 46.5398 196.389 46.5398C194.51 46.5398 192.792 46.1104 191.451 45.3659C190.114 44.6239 189.11 43.542 188.763 42.2255L188.638 41.7548ZM203.443 46.1348V34.7502H205.755V46.1348H203.443ZM86.1995 40.2791H93.3213L89.7604 33.5706L86.1995 40.2791ZM112.017 33.4385C111.736 33.1577 111.593 32.7771 111.593 32.372C111.593 31.9669 111.736 31.5863 112.017 31.3055C112.297 31.0248 112.678 30.882 113.083 30.882C113.492 30.882 113.878 31.0209 114.164 31.3022C114.45 31.584 114.593 31.9666 114.593 32.372C114.593 32.7774 114.45 33.16 114.164 33.4418C113.878 33.7231 113.492 33.8619 113.083 33.8619C112.678 33.8619 112.297 33.7192 112.017 33.4385ZM142.2 33.4385C141.92 33.1577 141.777 32.7771 141.777 32.372C141.777 31.9669 141.92 31.5863 142.2 31.3055C142.481 31.0248 142.862 30.882 143.267 30.882C143.676 30.882 144.062 31.0209 144.348 31.3022C144.634 31.584 144.777 31.9666 144.777 32.372C144.777 32.7774 144.634 33.16 144.348 33.4418C144.062 33.7231 143.676 33.8619 143.267 33.8619C142.862 33.8619 142.481 33.7192 142.2 33.4385ZM185.595 33.4385C185.315 33.1577 185.172 32.7771 185.172 32.372C185.172 31.9669 185.315 31.5863 185.595 31.3055C185.876 31.0248 186.257 30.882 186.662 30.882C187.071 30.882 187.457 31.0209 187.743 31.3022C188.029 31.584 188.172 31.9666 188.172 32.372C188.172 32.7774 188.029 33.16 187.743 33.4418C187.457 33.7231 187.071 33.8619 186.662 33.8619C186.257 33.8619 185.876 33.7192 185.595 33.4385ZM203.523 33.4385C203.242 33.1577 203.099 32.7771 203.099 32.372C203.099 31.9669 203.242 31.5863 203.523 31.3055C203.803 31.0248 204.184 30.882 204.589 30.882C204.998 30.882 205.384 31.0209 205.67 31.3022C205.956 31.584 206.099 31.9666 206.099 32.372C206.099 32.7774 205.956 33.16 205.67 33.4418C205.384 33.7231 204.998 33.8619 204.589 33.8619C204.184 33.8619 203.803 33.7192 203.523 33.4385Z" fill="white"/>
<path fill-rule="evenodd" clip-rule="evenodd" d="M81.4009 56.8676V50.4783H87.2199V51.5032H82.4671V53.1398H86.7239V54.1565H82.4671V56.8676H81.4009ZM94.6588 52.1314H95.692V54.6607C95.692 55.1093 95.8457 55.4367 96.1061 55.6569C96.373 55.8827 96.7865 56.0245 97.3534 56.0245C98.0814 56.0245 98.6226 55.8311 98.9786 55.5117C99.3304 55.1959 99.5355 54.7263 99.5355 54.0986V52.1314H100.569V56.8676H99.5783L99.557 56.2457C99.0205 56.7603 98.2158 57.0329 97.2955 57.0329C96.5129 57.0329 95.8508 56.8306 95.3803 56.4216C94.9044 56.0079 94.6588 55.4125 94.6588 54.702V52.1314ZM107.22 56.8676H106.187V54.3383C106.187 53.8897 106.033 53.5624 105.773 53.3421C105.506 53.1164 105.093 52.9745 104.526 52.9745C103.798 52.9745 103.256 53.1679 102.9 53.4874C102.549 53.8031 102.344 54.2727 102.344 54.9004V56.8676H101.31V52.1314H102.301L102.322 52.7533C102.859 52.2387 103.663 51.9661 104.584 51.9661C105.366 51.9661 106.028 52.1684 106.499 52.5774C106.975 52.9911 107.22 53.5865 107.22 54.297V56.8676ZM113.441 56.2885C112.879 56.7672 112.038 57.0329 111.119 57.0329C110.188 57.0329 109.375 56.7916 108.787 56.3511C108.193 55.9066 107.838 55.2637 107.838 54.5036C107.838 53.7401 108.192 53.0952 108.785 52.6493C109.372 52.2076 110.183 51.9661 111.111 51.9661C112.02 51.9661 112.847 52.2262 113.409 52.6935V50.2303H114.442V56.8676H113.459L113.441 56.2885ZM120.06 56.3132L120.079 56.8676H121.07V53.8011C121.07 53.1896 120.716 52.72 120.21 52.4172C119.709 52.1177 119.04 51.9661 118.326 51.9661C117.674 51.9661 117.026 52.0948 116.48 52.3108C115.941 52.5241 115.469 52.8361 115.208 53.2273L115.075 53.4275L115.799 54.1311L115.99 53.8335C116.128 53.6191 116.431 53.4004 116.867 53.2346C117.295 53.0719 117.814 52.9745 118.334 52.9745C118.886 52.9745 119.335 53.0859 119.635 53.25C119.933 53.413 120.04 53.5977 120.045 53.7494C120.038 53.7506 120.03 53.7516 120.021 53.7525L120.02 53.7526L117.742 53.9341L117.741 53.9342C116.846 54.0015 116.181 54.1608 115.731 54.4218C115.261 54.6941 115.019 55.0844 115.019 55.5616C115.019 56.0792 115.288 56.4663 115.742 56.706C116.175 56.9347 116.778 57.0329 117.499 57.0329C118.169 57.0329 118.813 56.9115 119.347 56.6994C119.609 56.5954 119.852 56.4663 120.06 56.3132ZM124.019 53.115V55.1681C124.015 55.4936 124.101 55.7014 124.224 55.8278C124.346 55.9536 124.547 56.041 124.862 56.041C125.348 56.041 125.784 55.734 125.925 55.2919L126.03 54.9644L126.956 55.4468L126.87 55.6848C126.576 56.4969 125.748 57.0329 124.854 57.0329C124.291 57.0329 123.811 56.8803 123.474 56.5464C123.135 56.2119 122.981 55.7372 122.986 55.1805V53.115H121.44V52.1314H122.977V50.8641L124.019 50.6037V52.1314H126.788V53.115H124.019ZM127.616 56.8676V52.1314H128.649V56.8676H127.616ZM142.571 56.8676H141.538V54.3383C141.538 53.8897 141.384 53.5624 141.124 53.3421C140.857 53.1164 140.444 52.9745 139.877 52.9745C139.149 52.9745 138.607 53.1679 138.251 53.4874C137.9 53.8031 137.695 54.2727 137.695 54.9004V56.8676H136.661V52.1314H137.652L137.673 52.7533C138.21 52.2387 139.014 51.9661 139.934 51.9661C140.717 51.9661 141.379 52.1684 141.85 52.5774C142.326 52.9911 142.571 53.5865 142.571 54.297V56.8676ZM88.3696 56.3644C87.7722 55.9215 87.4261 55.2768 87.4261 54.5036C87.4261 53.7307 87.772 53.0841 88.3691 52.6392C88.9589 52.1997 89.7792 51.9661 90.7323 51.9661C91.6893 51.9661 92.5098 52.1996 93.0988 52.6394C93.6953 53.0846 94.0385 53.7314 94.0385 54.5036C94.0385 55.2761 93.6951 55.921 93.0983 56.3642C92.5091 56.8018 91.6887 57.0329 90.7323 57.0329C89.7798 57.0329 88.9596 56.8017 88.3696 56.3644ZM92.4258 55.5891C92.8026 55.3219 93.0053 54.9524 93.0053 54.5036C93.0053 54.0549 92.8026 53.6854 92.4258 53.4182C92.0409 53.1453 91.4643 52.9745 90.7323 52.9745C90.0003 52.9745 89.4237 53.1453 89.0388 53.4182C88.662 53.6854 88.4593 54.0549 88.4593 54.5036C88.4593 54.9524 88.662 55.3219 89.0388 55.5891C89.4237 55.862 90.0003 56.0328 90.7323 56.0328C91.4643 56.0328 92.0409 55.862 92.4258 55.5891ZM112.825 55.577C113.211 55.3023 113.417 54.9307 113.417 54.5036C113.417 54.0719 113.21 53.7007 112.825 53.4274C112.434 53.15 111.856 52.9745 111.144 52.9745C110.436 52.9745 109.858 53.1499 109.466 53.4276C109.079 53.7013 108.871 54.0728 108.871 54.5036C108.871 54.9299 109.079 55.3017 109.466 55.5768C109.859 55.8556 110.437 56.0328 111.144 56.0328C111.856 56.0328 112.434 55.8555 112.825 55.577ZM120.036 54.7334C120.03 55.0563 119.823 55.3748 119.384 55.6282C118.938 55.8849 118.289 56.0493 117.516 56.0493C116.947 56.0493 116.559 55.9814 116.323 55.8732C116.209 55.8207 116.143 55.7645 116.106 55.7143C116.072 55.6674 116.052 55.612 116.052 55.5368C116.052 55.4458 116.096 55.3243 116.362 55.1964C116.637 55.0647 117.091 54.9606 117.769 54.9078L120.036 54.7334ZM127.661 51.6727C127.537 51.5488 127.475 51.3816 127.475 51.2057C127.475 51.0297 127.537 50.8625 127.661 50.7387C127.785 50.6148 127.952 50.5527 128.128 50.5527C128.305 50.5527 128.475 50.6129 128.601 50.737C128.727 50.8614 128.789 51.0296 128.789 51.2057C128.789 51.3818 128.727 51.5499 128.601 51.6743C128.475 51.7984 128.305 51.8586 128.128 51.8586C127.952 51.8586 127.785 51.7965 127.661 51.6727ZM130.331 56.3644C129.733 55.9215 129.387 55.2768 129.387 54.5036C129.387 53.7307 129.733 53.0841 130.33 52.6392C130.92 52.1997 131.74 51.9661 132.693 51.9661C133.65 51.9661 134.471 52.1996 135.06 52.6394C135.656 53.0846 136 53.7314 136 54.5036C136 55.2761 135.656 55.921 135.059 56.3642C134.47 56.8018 133.65 57.0329 132.693 57.0329C131.741 57.0329 130.921 56.8017 130.331 56.3644ZM134.387 55.5891C134.764 55.3219 134.967 54.9524 134.967 54.5036C134.967 54.0549 134.764 53.6854 134.387 53.4182C134.002 53.1453 133.425 52.9745 132.693 52.9745C131.962 52.9745 131.385 53.1453 131 53.4182C130.623 53.6854 130.42 54.0549 130.42 54.5036C130.42 54.9524 130.623 55.3219 131 55.5891C131.385 55.862 131.962 56.0328 132.693 56.0328C133.425 56.0328 134.002 55.862 134.387 55.5891Z" fill="white"/>
<path fill-rule="evenodd" clip-rule="evenodd" d="M184.559 25.3061C183.338 26.5785 181.534 27.298 179.508 27.298C177.53 27.298 175.805 26.6748 174.57 25.5187C173.331 24.3587 172.631 22.7058 172.631 20.745V15.1033H174.963V20.664C174.963 22.0356 175.444 23.1231 176.232 23.8696C177.023 24.6193 178.169 25.0674 179.569 25.0674C181.096 25.0674 182.345 24.5667 183.21 23.7176C184.073 22.87 184.6 21.6289 184.6 20.0564V15.1033H186.891V24.8764C186.891 26.8178 186.096 28.4125 184.685 29.5065C183.29 30.5877 181.34 31.1459 179.063 31.1459C175.678 31.1459 172.932 29.75 171.262 28.3299L171.254 28.3229L170.798 27.9053C169.985 27.162 169.478 26.1549 169.355 25.0776C168.834 25.4774 168.212 25.8144 167.534 26.0836C166.24 26.5975 164.675 26.8929 163.047 26.8929C161.289 26.8929 159.832 26.6528 158.793 26.1047C157.711 25.5338 157.082 24.6202 157.082 23.398C157.082 22.2733 157.648 21.3509 158.77 20.7003C159.851 20.0733 161.461 19.6845 163.649 19.5201L163.65 19.52L169.233 19.075L169.235 19.0748C169.324 19.067 169.37 19.0516 169.39 19.0425C169.393 19.0309 169.395 19.0117 169.395 18.983C169.395 18.5504 169.1 18.0561 168.334 17.6377C167.579 17.2245 166.459 16.9491 165.093 16.9491C163.806 16.9491 162.521 17.19 161.46 17.5935C160.382 18.0036 159.613 18.5506 159.258 19.1043L158.861 19.7204L157.25 18.1539L157.526 17.7395C158.148 16.8071 159.282 16.0538 160.591 15.5352C161.915 15.011 163.489 14.6983 165.072 14.6983C166.808 14.6983 168.426 15.0672 169.633 15.7881C170.85 16.5158 171.686 17.6346 171.686 19.0843V19.0894L171.643 24.0999C171.635 25.0411 172.026 25.9417 172.719 26.579L172.723 26.5827C174.251 27.7311 176.385 28.9153 179.063 28.9153C180.831 28.9153 182.22 28.4989 183.152 27.8018C183.958 27.1984 184.454 26.3626 184.559 25.3061ZM81.4009 26.4879V11.0529H95.4385V13.3442H83.7935V17.5741H94.2233V19.8452H83.7935V26.4879H81.4009ZM95.4698 15.1033H97.7814V21.1905C97.7814 22.3171 98.1686 23.1519 98.835 23.7154C99.5149 24.2903 100.556 24.6421 101.962 24.6421C103.764 24.6421 105.12 24.1632 106.018 23.3574C106.907 22.5592 107.419 21.3767 107.419 19.8134V15.1033H109.73V26.4879H107.52L107.463 24.8163C106.177 26.168 104.161 26.8929 101.82 26.8929C99.9207 26.8929 98.327 26.4019 97.1998 25.4221C96.0614 24.4326 95.4698 23.006 95.4698 21.2918V15.1033ZM125.015 26.4879H122.703V20.4007C122.703 19.2741 122.316 18.4393 121.65 17.8758C120.97 17.3009 119.929 16.9491 118.523 16.9491C116.72 16.9491 115.365 17.428 114.467 18.2338C113.578 19.032 113.066 20.2145 113.066 21.7778V26.4879H110.755V15.1033H112.965L113.022 16.7749C114.308 15.4232 116.324 14.6983 118.665 14.6983C120.564 14.6983 122.158 15.1893 123.285 16.1691C124.423 17.1586 125.015 18.5852 125.015 20.2994V26.4879ZM125.938 26.4879V15.1033H128.15L128.194 16.4872C129.369 15.3302 131.107 14.6983 133.099 14.6983C135.382 14.6983 137.202 15.5765 138.146 17.1449C139.38 15.5011 141.484 14.6983 143.731 14.6983C145.469 14.6983 146.92 15.1793 147.945 16.0932C148.977 17.0135 149.515 18.3187 149.515 19.8336V26.4879H147.203V20.0159C147.203 19.0064 146.863 18.2662 146.291 17.7697C145.707 17.2633 144.809 16.9491 143.589 16.9491C142.034 16.9491 140.866 17.4001 140.093 18.126C139.324 18.8485 138.882 19.9007 138.882 21.231V26.4879H136.571V20.0159C136.571 19.0064 136.231 18.2662 135.658 17.7697C135.074 17.2633 134.177 16.9491 132.957 16.9491C131.391 16.9491 130.226 17.3752 129.457 18.0841C128.694 18.7871 128.25 19.8345 128.25 21.231V26.4879H125.938ZM150.619 26.4879V15.1033H152.931V26.4879H150.619ZM154.15 26.4879V10.4453H156.461V26.4879H154.15ZM150.699 13.7916C150.418 13.5108 150.275 13.1302 150.275 12.7251C150.275 12.32 150.418 11.9394 150.699 11.6586C150.979 11.3779 151.36 11.2352 151.765 11.2352C152.174 11.2352 152.56 11.374 152.846 11.6553C153.132 11.9371 153.275 12.3197 153.275 12.7251C153.275 13.1305 153.132 13.5131 152.846 13.7949C152.56 14.0762 152.174 14.2151 151.765 14.2151C151.36 14.2151 150.979 14.0723 150.699 13.7916ZM167.72 23.6564C168.834 23.0142 169.375 22.1887 169.375 21.3323V21.2499L163.701 21.6863C162.034 21.8161 160.907 22.0724 160.215 22.4039C159.54 22.7276 159.393 23.0562 159.393 23.3373C159.393 23.543 159.448 23.7019 159.547 23.8371C159.651 23.979 159.828 24.1271 160.12 24.2613C160.719 24.5363 161.688 24.7029 163.088 24.7029C164.996 24.7029 166.608 24.2974 167.72 23.6564ZM189.978 25.2765C188.541 24.2114 187.711 22.6639 187.711 20.8057C187.711 18.948 188.541 17.3959 189.977 16.3257C191.398 15.2667 193.383 14.6983 195.701 14.6983C198.03 14.6983 200.015 15.2664 201.434 16.326C202.869 17.397 203.692 18.9494 203.692 20.8057C203.692 22.6625 202.868 24.2103 201.433 25.2762C200.013 26.3304 198.028 26.8929 195.701 26.8929C193.384 26.8929 191.4 26.3302 189.978 25.2765ZM199.914 23.555C200.865 22.8813 201.381 21.9436 201.381 20.8057C201.381 19.6678 200.865 18.7301 199.914 18.0564C198.948 17.3709 197.511 16.9491 195.701 16.9491C193.892 16.9491 192.455 17.3709 191.489 18.0564C190.538 18.7301 190.022 19.6678 190.022 20.8057C190.022 21.9436 190.538 22.8813 191.489 23.555C192.455 24.2405 193.892 24.6624 195.701 24.6624C197.511 24.6624 198.948 24.2405 199.914 23.555Z" fill="white"/>
<path fill-rule="evenodd" clip-rule="evenodd" d="M162.94 14.5554L162.148 12.8427L167.609 10.0835L168.495 11.78L162.94 14.5554Z" fill="white"/>
</svg>
