<svg width="393" height="2111" viewBox="0 0 393 2111" fill="none" xmlns="http://www.w3.org/2000/svg">
<g clip-path="url(#clip0_286_2718)">
<path d="M-114 66.7125L-24.5 44L185.5 21.5L334.614 49.8785L501 66.7126L483.909 3699.15L497.5 3629L306.713 4004L75 3686L-97.639 3735.28L-114 66.7125Z" fill="white"/>
<path d="M-321.427 486.36L-514.204 707.768V979.756L-270.369 1178.26L177.695 1257.47L319.415 1507.03L256.905 1733.69L443.957 2187H648.186L902.996 1812.9L1004.63 1691.7L1028.01 1461.7L1390.67 1092.85L1186.91 979.756L869.117 446.755H533.665L217.3 242.525L-321.427 401.424V486.36Z" fill="#FAFAFA"/>
</g>
<defs>
<clipPath id="clip0_286_2718">
<rect width="444" height="2111" fill="white" transform="translate(-5)"/>
</clipPath>
</defs>
</svg>
