<svg width="1512" height="982" viewBox="0 0 1512 982" fill="none" xmlns="http://www.w3.org/2000/svg">
<mask id="mask0_272_1005" style="mask-type:alpha" maskUnits="userSpaceOnUse" x="0" y="0" width="1512" height="982">
<rect width="1512" height="982" fill="#0B3434"/>
</mask>
<g mask="url(#mask0_272_1005)">
<rect width="1512" height="982" fill="#0B3434"/>
<path d="M136.068 -147.091L-38 52.8287V298.42L182.17 477.658L586.75 549.181L714.715 774.522L658.273 979.181L827.17 1388.5H1011.58L1241.66 1050.7L1333.43 941.266L1354.55 733.59L1682 400.534L1498.02 298.42L1211.07 -182.853H908.172L622.511 -367.261L136.068 -223.785V-147.091Z" fill="#072222"/>
<path d="M265.394 -65.464L238.838 -179.562L152.849 -175.032L165.858 -255.646L115.982 -284.261L-170.633 -256.003L-206.689 -66.049L-156.61 -62.0608L-113.093 88.651L-22.16 101.811L68.3009 52.2511L192.614 33.3614L265.394 -65.464Z" fill="#76AC3C"/>
</g>
</svg>
