<svg width="161" height="52" viewBox="0 0 161 52" fill="none" xmlns="http://www.w3.org/2000/svg">
<path fill-rule="evenodd" clip-rule="evenodd" d="M62.5371 35.3482L69.0389 24.5998H70.6951L77.1005 35.2451V24.1768H78.9114V30.3899L84.6136 27.4204H89.0434V35.3482H85.0459L80.3882 31.4281L78.9114 32.1827V35.3482H75.118L73.579 32.852H66.124L64.6008 35.3482H62.5371ZM81.9349 30.5949L87.2325 35.0078V27.842L81.9349 30.5949ZM101.17 35.3482H99.359V31.1093C99.359 30.3248 99.0557 29.7435 98.5336 29.3511C98.001 28.9507 97.1853 28.7058 96.0839 28.7058C94.6718 28.7058 93.6101 29.0392 92.9068 29.6004C92.2101 30.1562 91.8091 30.9797 91.8091 32.0683V35.3482H89.9982V27.4204H91.7299L91.7747 28.5844C92.7818 27.6432 94.3614 27.1384 96.1949 27.1384C97.6831 27.1384 98.9316 27.4803 99.8147 28.1626C100.706 28.8517 101.17 29.8451 101.17 31.0388V35.3482ZM110.279 30.2748L108.556 30.7647L108.511 30.2387C108.463 29.6883 108.238 29.3191 107.928 29.0836C107.612 28.8441 107.159 28.7058 106.583 28.7058C105.694 28.7058 104.99 29.0013 104.502 29.5016C104.008 30.0076 103.704 30.7566 103.704 31.7016V35.3482H101.893V27.4204H103.629L103.652 28.2165C104.415 27.5219 105.47 27.1384 106.662 27.1384C107.596 27.1384 108.441 27.3679 109.085 27.8523C109.733 28.3395 110.132 29.0511 110.238 29.9371L110.279 30.2748ZM110.879 35.3482V27.4204H112.69V35.3482H110.879ZM124.816 35.3482H123.005V31.1093C123.005 30.3248 122.702 29.7435 122.18 29.3511C121.647 28.9507 120.832 28.7058 119.73 28.7058C118.318 28.7058 117.256 29.0392 116.553 29.6004C115.856 30.1562 115.455 30.9797 115.455 32.0683V35.3482H113.644V27.4204H115.376L115.421 28.5844C116.428 27.6432 118.008 27.1384 119.841 27.1384C121.329 27.1384 122.578 27.4803 123.461 28.1626C124.353 28.8517 124.816 29.8451 124.816 31.0388V35.3482ZM125.539 35.3482V27.4204H127.272L127.307 28.3841C128.227 27.5784 129.589 27.1384 131.149 27.1384C132.938 27.1384 134.363 27.7499 135.103 28.8421C136.07 27.6974 137.718 27.1384 139.479 27.1384C140.84 27.1384 141.977 27.4733 142.78 28.1097C143.588 28.7506 144.009 29.6595 144.009 30.7144V35.3482H142.198V30.8414C142.198 30.1384 141.932 29.623 141.484 29.2772C141.026 28.9246 140.323 28.7058 139.368 28.7058C138.149 28.7058 137.234 29.0198 136.629 29.5253C136.026 30.0284 135.68 30.7611 135.68 31.6875V35.3482H133.869V30.8414C133.869 30.1384 133.603 29.623 133.154 29.2772C132.697 28.9246 131.993 28.7058 131.038 28.7058C129.811 28.7058 128.898 29.0025 128.296 29.4962C127.699 29.9857 127.35 30.715 127.35 31.6875V35.3482H125.539ZM144.875 35.3482V27.4204H146.686V35.3482H144.875ZM147.321 32.2982L148.945 31.5762L149.088 32.079C149.239 32.6085 149.699 33.1045 150.447 33.4759C151.193 33.8464 152.198 34.077 153.361 34.077C154.315 34.077 155.123 33.9313 155.672 33.7036C156.241 33.4672 156.402 33.2076 156.399 33.0199L156.398 33.0166V33.0132C156.398 32.8733 156.329 32.7197 155.961 32.5556C155.576 32.3836 154.954 32.2489 154.057 32.1587C154.056 32.1585 154.055 32.1584 154.054 32.1583L151.978 31.9753C150.929 31.8748 150.02 31.6912 149.363 31.3543C148.674 31.0013 148.243 30.4666 148.243 29.7272V29.7228C148.253 28.889 148.771 28.2266 149.555 27.7907C150.328 27.3605 151.373 27.1384 152.536 27.1384C153.581 27.1384 154.587 27.3492 155.423 27.7111C156.254 28.0708 156.949 28.595 157.318 29.2426L157.507 29.5745L156.021 30.4453L155.783 30.0288C155.369 29.3033 154.085 28.6776 152.536 28.6776C151.75 28.6776 151.098 28.8168 150.658 29.0265C150.213 29.2381 150.06 29.4776 150.054 29.6746C150.055 29.7603 150.079 29.8165 150.119 29.8642C150.164 29.919 150.251 29.9873 150.417 30.0591C150.761 30.2075 151.326 30.3217 152.176 30.4128C152.177 30.413 152.179 30.4131 152.18 30.4132L154.301 30.6102L154.304 30.6105C155.402 30.7245 156.354 30.9075 157.041 31.2521C157.391 31.428 157.689 31.6535 157.897 31.946C158.107 32.2405 158.209 32.579 158.209 32.9546C158.209 32.9553 158.209 32.9561 158.209 32.9568L158.209 32.9525L158.209 32.9546C158.219 33.841 157.618 34.5252 156.744 34.966C155.877 35.4035 154.7 35.6303 153.393 35.6303C151.921 35.6303 150.575 35.3312 149.524 34.8128C148.477 34.2961 147.69 33.5427 147.418 32.6259L147.321 32.2982ZM158.919 35.3482V27.4204H160.73V35.3482H158.919ZM67.0691 31.2705H72.6484L69.8587 26.599L67.0691 31.2705ZM87.2946 26.507C87.0746 26.3115 86.9628 26.0464 86.9628 25.7643C86.9628 25.4822 87.0746 25.2172 87.2946 25.0217C87.5145 24.8262 87.8127 24.7268 88.13 24.7268C88.4506 24.7268 88.7528 24.8234 88.9767 25.0193C89.2011 25.2156 89.3131 25.482 89.3131 25.7643C89.3131 26.0466 89.2011 26.3131 88.9767 26.5093C88.7528 26.7052 88.4506 26.8019 88.13 26.8019C87.8127 26.8019 87.5145 26.7025 87.2946 26.507ZM110.941 26.507C110.721 26.3115 110.609 26.0464 110.609 25.7643C110.609 25.4822 110.721 25.2172 110.941 25.0217C111.161 24.8262 111.459 24.7268 111.776 24.7268C112.097 24.7268 112.399 24.8234 112.623 25.0193C112.847 25.2156 112.959 25.482 112.959 25.7643C112.959 26.0466 112.847 26.3131 112.623 26.5093C112.399 26.7052 112.097 26.8019 111.776 26.8019C111.459 26.8019 111.161 26.7025 110.941 26.507ZM144.937 26.507C144.717 26.3115 144.605 26.0464 144.605 25.7643C144.605 25.4822 144.717 25.2172 144.937 25.0217C145.157 24.8262 145.455 24.7268 145.772 24.7268C146.093 24.7268 146.395 24.8234 146.619 25.0193C146.843 25.2156 146.955 25.482 146.955 25.7643C146.955 26.0466 146.843 26.3131 146.619 26.5093C146.395 26.7052 146.093 26.8019 145.772 26.8019C145.455 26.8019 145.157 26.7025 144.937 26.507ZM158.981 26.507C158.761 26.3115 158.649 26.0464 158.649 25.7643C158.649 25.4822 158.761 25.2172 158.981 25.0217C159.201 24.8262 159.499 24.7268 159.817 24.7268C160.137 24.7268 160.439 24.8234 160.663 25.0193C160.888 25.2156 161 25.482 161 25.7643C161 26.0466 160.888 26.3131 160.663 26.5093C160.439 26.7052 160.137 26.8019 159.817 26.8019C159.499 26.8019 159.201 26.7025 158.981 26.507Z" fill="black"/>
<path fill-rule="evenodd" clip-rule="evenodd" d="M63.3086 42.8222V38.3729H67.8672V39.0866H64.1439V40.2263H67.4787V40.9342H64.1439V42.8222H63.3086ZM73.695 39.524H74.5044V41.2853C74.5044 41.5978 74.6248 41.8257 74.8288 41.9791C75.0379 42.1363 75.3618 42.2351 75.8059 42.2351C76.3763 42.2351 76.8003 42.1004 77.0791 41.8779C77.3547 41.6581 77.5154 41.3311 77.5154 40.8939V39.524H78.3249V42.8222H77.549L77.5323 42.3891C77.112 42.7474 76.4816 42.9373 75.7606 42.9373C75.1475 42.9373 74.6288 42.7964 74.2602 42.5116C73.8874 42.2235 73.695 41.8089 73.695 41.3141V39.524ZM83.5358 42.8222H82.7263V41.0609C82.7263 40.7485 82.6059 40.5205 82.4019 40.3671C82.1928 40.2099 81.8689 40.1111 81.4248 40.1111C80.8544 40.1111 80.4304 40.2458 80.1516 40.4683C79.876 40.6882 79.7153 41.0152 79.7153 41.4523V42.8222H78.9059V39.524H79.6818L79.6984 39.9571C80.1188 39.5988 80.7491 39.4089 81.4701 39.4089C82.0832 39.4089 82.6019 39.5498 82.9705 39.8346C83.3434 40.1227 83.5358 40.5373 83.5358 41.0321V42.8222ZM88.4093 42.4189C87.9685 42.7522 87.3098 42.9373 86.5904 42.9373C85.8606 42.9373 85.2235 42.7692 84.7628 42.4625C84.2978 42.1529 84.0196 41.7053 84.0196 41.176C84.0196 40.6443 84.2974 40.1952 84.7616 39.8847C85.2215 39.5771 85.8571 39.4089 86.5839 39.4089C87.296 39.4089 87.9436 39.5901 88.384 39.9155V38.2002H89.1934V42.8222H88.4233L88.4093 42.4189ZM93.5947 42.4361L93.6098 42.8222H94.3856V40.6867C94.3856 40.2609 94.1087 39.9339 93.7118 39.7231C93.3193 39.5145 92.7951 39.4089 92.2358 39.4089C91.725 39.4089 91.2175 39.4985 90.7901 39.649C90.3681 39.7975 89.9981 40.0148 89.7938 40.2872L89.6892 40.4266L90.2562 40.9166L90.4061 40.7093C90.514 40.56 90.7517 40.4077 91.0933 40.2922C91.4283 40.179 91.8348 40.1111 92.2422 40.1111C92.6748 40.1111 93.0267 40.1887 93.2618 40.303C93.4953 40.4165 93.5789 40.5451 93.5825 40.6508C93.5773 40.6516 93.5711 40.6523 93.5637 40.6529L93.563 40.653L91.7785 40.7794L91.7779 40.7794C91.0767 40.8263 90.5554 40.9373 90.2029 41.119C89.8351 41.3086 89.6456 41.5804 89.6456 41.9127C89.6456 42.2731 89.8558 42.5427 90.2116 42.7097C90.5511 42.8689 91.0237 42.9373 91.5882 42.9373C92.1128 42.9373 92.6174 42.8527 93.0357 42.7051C93.2409 42.6326 93.4317 42.5427 93.5947 42.4361ZM96.696 40.209V41.6387C96.6931 41.8653 96.7603 42.0101 96.8567 42.0981C96.9526 42.1857 97.1098 42.2466 97.3564 42.2466C97.7374 42.2466 98.0791 42.0328 98.1895 41.7249L98.2713 41.4969L98.9968 41.8327L98.9294 41.9985C98.6995 42.564 98.0507 42.9373 97.35 42.9373C96.9093 42.9373 96.5334 42.831 96.2687 42.5985C96.0036 42.3655 95.8832 42.035 95.8865 41.6473V40.209H94.6756V39.524H95.8801V38.6415L96.696 38.4602V39.524H98.8652V40.209H96.696ZM99.5138 42.8222V39.524H100.323V42.8222H99.5138ZM111.23 42.8222H110.421V41.0609C110.421 40.7485 110.3 40.5205 110.096 40.3671C109.887 40.2099 109.563 40.1111 109.119 40.1111C108.549 40.1111 108.125 40.2458 107.846 40.4683C107.57 40.6882 107.41 41.0152 107.41 41.4523V42.8222H106.6V39.524H107.376L107.393 39.9571C107.813 39.5988 108.443 39.4089 109.164 39.4089C109.778 39.4089 110.296 39.5498 110.665 39.8346C111.038 40.1227 111.23 40.5373 111.23 41.0321V42.8222ZM68.768 42.4717C68.2999 42.1634 68.0288 41.7144 68.0288 41.176C68.0288 40.6377 68.2998 40.1875 68.7675 39.8777C69.2296 39.5716 69.8723 39.4089 70.6189 39.4089C71.3686 39.4089 72.0114 39.5715 72.4729 39.8778C72.9402 40.1878 73.2091 40.6382 73.2091 41.176C73.2091 41.7139 72.94 42.163 72.4724 42.4716C72.0109 42.7763 71.3682 42.9373 70.6189 42.9373C69.8727 42.9373 69.2302 42.7762 68.768 42.4717ZM71.9456 41.9319C72.2408 41.7458 72.3996 41.4885 72.3996 41.176C72.3996 40.8635 72.2408 40.6062 71.9456 40.4201C71.6441 40.2301 71.1924 40.1111 70.6189 40.1111C70.0455 40.1111 69.5938 40.2301 69.2922 40.4201C68.997 40.6062 68.8382 40.8635 68.8382 41.176C68.8382 41.4885 68.997 41.7458 69.2922 41.9319C69.5938 42.1219 70.0455 42.2408 70.6189 42.2408C71.1924 42.2408 71.6441 42.1219 71.9456 41.9319ZM87.9264 41.9234C88.2288 41.7322 88.3905 41.4734 88.3905 41.176C88.3905 40.8754 88.2285 40.6168 87.9267 40.4265C87.6204 40.2334 87.1678 40.1111 86.6098 40.1111C86.0552 40.1111 85.6025 40.2333 85.2951 40.4267C84.9921 40.6173 84.8291 40.8759 84.8291 41.176C84.8291 41.4728 84.9918 41.7317 85.2954 41.9233C85.603 42.1174 86.0558 42.2408 86.6098 42.2408C87.1673 42.2408 87.6199 42.1174 87.9264 41.9234ZM93.576 41.336C93.5712 41.5608 93.4091 41.7826 93.0647 41.9591C92.7158 42.1379 92.207 42.2523 91.6012 42.2523C91.1554 42.2523 90.8514 42.205 90.667 42.1297C90.5774 42.0931 90.5261 42.054 90.4973 42.0191C90.4704 41.9864 90.455 41.9478 90.455 41.8955C90.455 41.8321 90.4888 41.7474 90.6979 41.6584C90.9131 41.5667 91.2682 41.4942 91.7999 41.4574L93.576 41.336ZM99.5494 39.2046C99.4524 39.1183 99.4037 39.0019 99.4037 38.8794C99.4037 38.7569 99.4524 38.6404 99.5494 38.5542C99.6465 38.4679 99.7774 38.4247 99.9153 38.4247C100.054 38.4247 100.187 38.4666 100.286 38.5531C100.385 38.6397 100.433 38.7568 100.433 38.8794C100.433 39.002 100.385 39.1191 100.286 39.2057C100.187 39.2922 100.054 39.3341 99.9153 39.3341C99.7774 39.3341 99.6465 39.2908 99.5494 39.2046ZM101.641 42.4717C101.173 42.1634 100.902 41.7144 100.902 41.176C100.902 40.6377 101.173 40.1875 101.64 39.8777C102.102 39.5716 102.745 39.4089 103.492 39.4089C104.241 39.4089 104.884 39.5715 105.346 39.8778C105.813 40.1878 106.082 40.6382 106.082 41.176C106.082 41.7139 105.813 42.163 105.345 42.4716C104.884 42.7763 104.241 42.9373 103.492 42.9373C102.746 42.9373 102.103 42.7762 101.641 42.4717ZM104.818 41.9319C105.114 41.7458 105.272 41.4885 105.272 41.176C105.272 40.8635 105.114 40.6062 104.818 40.4201C104.517 40.2301 104.065 40.1111 103.492 40.1111C102.918 40.1111 102.467 40.2301 102.165 40.4201C101.87 40.6062 101.711 40.8635 101.711 41.176C101.711 41.4885 101.87 41.7458 102.165 41.9319C102.467 42.1219 102.918 42.2408 103.492 42.2408C104.065 42.2408 104.517 42.1219 104.818 41.9319Z" fill="black"/>
<path fill-rule="evenodd" clip-rule="evenodd" d="M144.124 20.8441C143.168 21.7302 141.754 22.2312 140.167 22.2312C138.617 22.2312 137.266 21.7973 136.298 20.9922C135.327 20.1844 134.779 19.0334 134.779 17.6679V13.7393H136.606V17.6115C136.606 18.5667 136.983 19.324 137.6 19.8438C138.22 20.3659 139.117 20.6779 140.214 20.6779C141.411 20.6779 142.389 20.3292 143.067 19.7379C143.743 19.1477 144.156 18.2834 144.156 17.1884V13.7393H145.951V20.5449C145.951 21.8968 145.328 23.0073 144.222 23.7691C143.13 24.5221 141.602 24.9107 139.818 24.9107C137.166 24.9107 135.015 23.9387 133.707 22.9498L133.7 22.9449L133.343 22.6541C132.706 22.1365 132.309 21.4352 132.213 20.685C131.805 20.9634 131.317 21.1981 130.786 21.3855C129.772 21.7434 128.547 21.9491 127.271 21.9491C125.893 21.9491 124.752 21.7819 123.939 21.4003C123.091 21.0027 122.598 20.3665 122.598 19.5154C122.598 18.7322 123.042 18.0899 123.92 17.6368C124.767 17.2002 126.029 16.9295 127.743 16.815L127.744 16.8149L132.117 16.505L132.119 16.5049C132.188 16.4994 132.224 16.4887 132.24 16.4824C132.242 16.4743 132.244 16.4609 132.244 16.441C132.244 16.1397 132.013 15.7955 131.413 15.5041C130.821 15.2164 129.944 15.0246 128.874 15.0246C127.865 15.0246 126.859 15.1924 126.028 15.4733C125.183 15.7589 124.581 16.1398 124.302 16.5254L123.992 16.9545L122.73 15.8636L122.946 15.575C123.433 14.9257 124.321 14.4011 125.347 14.04C126.384 13.675 127.617 13.4572 128.858 13.4572C130.218 13.4572 131.485 13.7141 132.43 14.2161C133.384 14.7229 134.039 15.502 134.039 16.5115V16.515L134.006 20.0042C133.999 20.6596 134.305 21.2867 134.848 21.7305L134.851 21.7331C136.048 22.5328 137.72 23.3575 139.818 23.3575C141.203 23.3575 142.291 23.0675 143.021 22.5821C143.653 22.1619 144.042 21.5798 144.124 20.8441ZM63.3086 21.6671V10.9187H74.3058V12.5143H65.183V15.4598H73.3538V17.0413H65.183V21.6671H63.3086ZM74.3303 13.7393H76.1413V17.9782C76.1413 18.7627 76.4446 19.344 76.9667 19.7364C77.4993 20.1368 78.315 20.3817 79.4164 20.3817C80.8285 20.3817 81.8902 20.0483 82.5935 19.4871C83.2902 18.9313 83.6911 18.1078 83.6911 17.0192V13.7393H85.5021V21.6671H83.7704L83.7256 20.5031C82.7185 21.4443 81.1389 21.9491 79.3054 21.9491C77.8172 21.9491 76.5687 21.6072 75.6856 20.9249C74.7938 20.2358 74.3303 19.2424 74.3303 18.0487V13.7393ZM97.4764 21.6671H95.6655V17.4282C95.6655 16.6436 95.3621 16.0624 94.8401 15.6699C94.3075 15.2696 93.4918 15.0246 92.3903 15.0246C90.9783 15.0246 89.9166 15.3581 89.2132 15.9192C88.5165 16.475 88.1156 17.2985 88.1156 18.3872V21.6671H86.3047V13.7393H88.0363L88.0812 14.9033C89.0883 13.962 90.6678 13.4572 92.5014 13.4572C93.9895 13.4572 95.238 13.7991 96.1211 14.4815C97.0129 15.1705 97.4764 16.1639 97.4764 17.3577V21.6671ZM98.1996 21.6671V13.7393H99.9324L99.9669 14.703C100.887 13.8973 102.249 13.4572 103.809 13.4572C105.598 13.4572 107.024 14.0688 107.764 15.1609C108.73 14.0163 110.379 13.4572 112.139 13.4572C113.5 13.4572 114.637 13.7922 115.44 14.4286C116.248 15.0695 116.67 15.9784 116.67 17.0333V21.6671H114.859V17.1602C114.859 16.4572 114.592 15.9418 114.144 15.5961C113.686 15.2434 112.983 15.0246 112.028 15.0246C110.809 15.0246 109.895 15.3387 109.289 15.8442C108.686 16.3473 108.34 17.08 108.34 18.0064V21.6671H106.529V17.1602C106.529 16.4572 106.263 15.9418 105.814 15.5961C105.357 15.2434 104.654 15.0246 103.698 15.0246C102.472 15.0246 101.558 15.3214 100.956 15.815C100.359 16.3045 100.011 17.0339 100.011 18.0064V21.6671H98.1996ZM117.535 21.6671V13.7393H119.346V21.6671H117.535ZM120.301 21.6671V10.4956H122.112V21.6671H120.301ZM117.597 12.8258C117.377 12.6303 117.265 12.3652 117.265 12.0832C117.265 11.8011 117.377 11.536 117.597 11.3405C117.817 11.145 118.115 11.0456 118.433 11.0456C118.753 11.0456 119.055 11.1423 119.279 11.3382C119.504 11.5344 119.616 11.8009 119.616 12.0832C119.616 12.3655 119.504 12.6319 119.279 12.8282C119.055 13.0241 118.753 13.1207 118.433 13.1207C118.115 13.1207 117.817 13.0213 117.597 12.8258ZM130.932 19.6953C131.805 19.2481 132.228 18.6733 132.228 18.0769V18.0195L127.784 18.3234C126.477 18.4138 125.594 18.5923 125.052 18.8232C124.523 19.0485 124.409 19.2774 124.409 19.4731C124.409 19.6164 124.451 19.727 124.529 19.8212C124.61 19.92 124.749 20.0231 124.978 20.1166C125.447 20.3081 126.207 20.4241 127.303 20.4241C128.798 20.4241 130.061 20.1417 130.932 19.6953ZM148.369 20.8235C147.243 20.0818 146.593 19.0042 146.593 17.7102C146.593 16.4166 147.243 15.3357 148.368 14.5905C149.482 13.853 151.037 13.4572 152.853 13.4572C154.677 13.4572 156.232 13.8529 157.344 14.5907C158.468 15.3365 159.113 16.4176 159.113 17.7102C159.113 19.0032 158.467 20.081 157.343 20.8233C156.231 21.5574 154.676 21.9491 152.853 21.9491C151.037 21.9491 149.483 21.5572 148.369 20.8235ZM156.153 19.6247C156.898 19.1556 157.302 18.5026 157.302 17.7102C157.302 16.9178 156.898 16.2648 156.153 15.7957C155.396 15.3184 154.27 15.0246 152.853 15.0246C151.436 15.0246 150.31 15.3184 149.552 15.7957C148.808 16.2648 148.404 16.9178 148.404 17.7102C148.404 18.5026 148.808 19.1556 149.552 19.6247C150.31 20.1021 151.436 20.3958 152.853 20.3958C154.27 20.3958 155.396 20.1021 156.153 19.6247Z" fill="black"/>
<path fill-rule="evenodd" clip-rule="evenodd" d="M127.187 13.3576L126.567 12.165L130.845 10.2435L131.539 11.4249L127.187 13.3576Z" fill="black"/>
<path fill-rule="evenodd" clip-rule="evenodd" d="M46.3144 17.5129C31.4203 21.564 20.3047 35.1669 20.3047 51.3286H24.199C24.199 36.4111 34.8772 23.9389 48.8871 20.8909C48.0774 19.7273 47.2189 18.6004 46.3144 17.5129Z" fill="#0D6032"/>
<path fill-rule="evenodd" clip-rule="evenodd" d="M1.15771 32.0548C11.7444 32.1228 20.3055 40.7259 20.3055 51.3286H24.1992C24.1992 38.9593 14.5058 28.854 2.30103 28.1948C1.86916 29.4591 1.48727 30.7466 1.15771 32.0548Z" fill="#76AC3C"/>
<path fill-rule="evenodd" clip-rule="evenodd" d="M53.3955 28.8557C47.6352 30.3006 42.7306 33.9009 39.5895 38.75C40.2164 40.5664 40.7134 42.4434 41.0692 44.3699C43.3701 38.4291 48.5304 33.9121 54.861 32.5102C54.4202 31.2683 53.9309 30.0494 53.3955 28.8557ZM35.8809 51.3286C35.8809 48.7949 36.2875 46.3563 37.039 44.0746C37.5426 46.4147 37.8138 48.8411 37.8272 51.3286H35.8809Z" fill="#E89606"/>
<path fill-rule="evenodd" clip-rule="evenodd" d="M35.427 7.78784C28.6955 10.8367 22.8127 15.4274 18.2285 21.1099C19.4381 21.6653 20.6146 22.2806 21.7543 22.9521C26.3603 17.4487 32.3167 13.1139 39.1125 10.4585C37.9274 9.51353 36.6977 8.62209 35.427 7.78784Z" fill="#DA5901"/>
<path d="M19.3741 26.0736C17.67 28.5328 16.2156 31.1782 15.0478 33.9728L11.4551 32.4715C12.6561 29.5973 14.1348 26.8682 15.8577 24.3176C17.0661 24.8387 18.2397 25.4255 19.3741 26.0736Z" fill="#76AC3C"/>
<path fill-rule="evenodd" clip-rule="evenodd" d="M33.1325 8.11044C34.3675 7.11103 35.0119 5.47167 34.6627 3.81016C34.3135 2.14878 33.0638 0.907624 31.5312 0.489815C30.2963 1.48923 29.6518 3.12859 30.001 4.7901C30.3502 6.45148 31.5999 7.69263 33.1325 8.11044Z" fill="#0D6032"/>
<path fill-rule="evenodd" clip-rule="evenodd" d="M3.40402 27.3756C4.19278 26.6645 4.61786 25.3897 4.4181 24.0196C4.21842 22.6501 3.44758 21.55 2.48916 21.0935C1.70041 21.8045 1.27533 23.0793 1.47509 24.4494C1.67477 25.819 2.44561 26.919 3.40402 27.3756Z" fill="#0D6032"/>
<path fill-rule="evenodd" clip-rule="evenodd" d="M43.4329 14.8676C42.5447 15.3241 41.2524 15.275 40.0635 14.6465C38.8769 14.0193 38.1092 12.9819 37.9839 11.9927C38.8721 11.5362 40.1644 11.5853 41.3533 12.2138C42.5399 12.841 43.3076 13.8784 43.4329 14.8676Z" fill="#76AC3C"/>
<path fill-rule="evenodd" clip-rule="evenodd" d="M5.85938 20.198C22.5402 20.7923 35.8806 34.5023 35.8806 51.3281H39.7744C39.7744 33.1348 25.9105 18.1796 8.17103 16.4509C7.34678 17.6624 6.57513 18.9125 5.85938 20.198Z" fill="#DA5901"/>
</svg>
