<svg width="50" height="50" viewBox="0 0 50 50" fill="none" xmlns="http://www.w3.org/2000/svg">
<rect width="50" height="50" rx="25" fill="#76AC3C"/>
<path d="M24.9999 20.9375C22.7562 20.9375 20.9374 22.7563 20.9374 25C20.9374 27.2437 22.7562 29.0625 24.9999 29.0625C27.2435 29.0625 29.0624 27.2437 29.0624 25C29.0624 22.7563 27.2435 20.9375 24.9999 20.9375Z" fill="#0B3434"/>
<path fill-rule="evenodd" clip-rule="evenodd" d="M18.4618 13.8518C22.7719 13.3701 27.2278 13.3701 31.538 13.8518C33.911 14.117 35.825 15.9868 36.1035 18.3681C36.6188 22.7743 36.6188 27.2256 36.1035 31.6319C35.825 34.0132 33.911 35.8829 31.538 36.1482C27.2278 36.6299 22.7719 36.6299 18.4618 36.1482C16.0888 35.8829 14.1748 34.0132 13.8963 31.6319C13.3809 27.2256 13.3809 22.7743 13.8963 18.3681C14.1748 15.9868 16.0888 14.117 18.4618 13.8518ZM31.2499 17.5C30.5595 17.5 29.9999 18.0596 29.9999 18.75C29.9999 19.4404 30.5595 20 31.2499 20C31.9402 20 32.4999 19.4404 32.4999 18.75C32.4999 18.0596 31.9402 17.5 31.2499 17.5ZM19.0624 25C19.0624 21.7208 21.7207 19.0625 24.9999 19.0625C28.2791 19.0625 30.9374 21.7208 30.9374 25C30.9374 28.2792 28.2791 30.9375 24.9999 30.9375C21.7207 30.9375 19.0624 28.2792 19.0624 25Z" fill="#0B3434"/>
</svg>
