<svg width="50" height="50" viewBox="0 0 50 50" fill="none" xmlns="http://www.w3.org/2000/svg">
<rect width="50" height="50" rx="25" fill="#76AC3C"/>
<path d="M15.9375 12.3438C14.4705 12.3438 13.2812 13.533 13.2812 15C13.2812 16.467 14.4705 17.6562 15.9375 17.6562C17.4045 17.6562 18.5938 16.467 18.5938 15C18.5938 13.533 17.4045 12.3438 15.9375 12.3438Z" fill="#0B3434"/>
<path d="M13.4375 19.8437C13.3512 19.8437 13.2812 19.9137 13.2812 20V36.25C13.2812 36.3363 13.3512 36.4062 13.4375 36.4062H18.4375C18.5238 36.4062 18.5938 36.3363 18.5938 36.25V20C18.5938 19.9137 18.5238 19.8437 18.4375 19.8437H13.4375Z" fill="#0B3434"/>
<path d="M21.5625 19.8437C21.4762 19.8437 21.4062 19.9137 21.4062 20V36.25C21.4062 36.3363 21.4762 36.4062 21.5625 36.4062H26.5625C26.6488 36.4062 26.7188 36.3363 26.7188 36.25V27.5C26.7188 26.8784 26.9657 26.2823 27.4052 25.8427C27.8448 25.4032 28.4409 25.1562 29.0625 25.1562C29.6841 25.1562 30.2802 25.4032 30.7198 25.8427C31.1593 26.2823 31.4062 26.8784 31.4062 27.5V36.25C31.4062 36.3363 31.4762 36.4062 31.5625 36.4062H36.5625C36.6488 36.4062 36.7188 36.3363 36.7188 36.25V25.4753C36.7188 22.4419 34.0805 20.0687 31.0623 20.3431C30.1315 20.4277 29.2112 20.6591 28.3518 21.0274L26.7188 21.7273V20C26.7188 19.9137 26.6488 19.8437 26.5625 19.8437H21.5625Z" fill="#0B3434"/>
</svg>
