<svg width="22" height="22" viewBox="0 0 22 22" fill="none" xmlns="http://www.w3.org/2000/svg">
<path fill-rule="evenodd" clip-rule="evenodd" d="M16.8309 11.3674C19.4503 7.05315 16.0534 1.34485 11.0004 1.34485C5.94736 1.34485 2.55043 7.05315 5.16987 11.3674C5.63387 12.1638 7.98329 16.073 9.5545 18.6844C10.2097 19.7734 11.7879 19.7715 12.441 18.6814C14.0055 16.0704 16.3468 12.1647 16.8309 11.3674ZM11.0004 4.77232C12.8088 4.77232 14.2747 6.23823 14.2747 8.04662C14.2747 9.85502 12.8088 11.3209 11.0004 11.3209C9.19197 11.3209 7.72564 9.85502 7.72564 8.04662C7.72564 6.23823 9.19197 4.77232 11.0004 4.77232Z" fill="#0D6032"/>
</svg>
