<svg width="14" height="19" viewBox="0 0 14 19" fill="none" xmlns="http://www.w3.org/2000/svg">
<path fill-rule="evenodd" clip-rule="evenodd" d="M12.8309 10.3674C15.4503 6.05315 12.0534 0.344849 7.00037 0.344849C1.94736 0.344849 -1.44957 6.05315 1.16987 10.3674C1.63387 11.1638 3.98329 15.073 5.5545 17.6844C6.20966 18.7734 7.78785 18.7715 8.44103 17.6814C10.0055 15.0704 12.3468 11.1647 12.8309 10.3674ZM7.00037 3.77232C8.80876 3.77232 10.2747 5.23823 10.2747 7.04662C10.2747 8.85502 8.80876 10.3209 7.00037 10.3209C5.19197 10.3209 3.72564 8.85502 3.72564 7.04662C3.72564 5.23823 5.19197 3.77232 7.00037 3.77232Z" fill="#0D6032"/>
</svg>
