<svg width="245" height="223" viewBox="0 0 245 223" fill="none" xmlns="http://www.w3.org/2000/svg">
<path d="M1.68293 292.161C3.29435 294.352 5.85967 295.642 8.5929 295.642H256.109C259.048 295.642 261.781 294.146 263.354 291.671C264.939 289.196 265.145 286.076 263.895 283.421L215.771 180.289C214.353 177.26 211.324 175.326 207.985 175.326H177.806L134.065 119.094V103.379L173.602 80.793L133.626 57.9493V57.9364C132.672 54.2108 129.32 51.5937 125.479 51.568C123.197 51.568 121.005 52.4704 119.394 54.0818C117.782 55.6933 116.88 57.8847 116.88 60.1668V118.976L59.5255 189.08H36.0887C32.3245 189.08 28.9857 191.542 27.8768 195.138L0.379473 284.515V284.528C-0.419804 287.132 0.0586054 289.969 1.68293 292.161ZM69.7497 278.457L83.0149 247.518H97.9688C100.934 247.518 103.693 245.997 105.252 243.483L132.35 200.128L159.448 243.47V243.482C161.008 245.996 163.766 247.518 166.731 247.518H181.685L194.95 278.457L69.7497 278.457ZM42.4329 206.265H63.6008C66.1791 206.265 68.6154 205.105 70.2527 203.107L125.313 135.812L166.823 189.183V189.196C168.448 191.285 170.949 192.509 173.604 192.509H202.507L242.611 278.457H213.644L195.248 235.541H195.261C193.907 232.382 190.788 230.333 187.359 230.333H171.489L139.635 179.374V179.361C137.959 177.002 135.252 175.597 132.351 175.597C129.451 175.597 126.743 177.002 125.068 179.361L93.2129 230.333H77.3435C73.9143 230.333 70.7946 232.383 69.4412 235.541L51.0452 278.457H20.2347L42.4329 206.265Z" fill="black" fill-opacity="0.1"/>
<path d="M165.817 29.4576C169.53 29.4576 172.817 27.0727 173.978 23.5532L176.13 17.03C176.865 14.8643 176.698 12.4922 175.679 10.4425C174.661 8.40563 172.856 6.84591 170.69 6.12383C168.512 5.41481 166.153 5.5824 164.103 6.62658C162.066 7.6579 160.519 9.46272 159.823 11.6412L157.67 18.1644C156.806 20.7814 157.244 23.6563 158.856 25.8995C160.48 28.1297 163.058 29.4576 165.817 29.4576Z" fill="black" fill-opacity="0.1"/>
<path d="M202.803 41.6154L206.903 36.0977C208.269 34.2671 208.849 31.9725 208.514 29.7165C208.179 27.4604 206.967 25.4235 205.137 24.0701C203.306 22.7036 201.012 22.1235 198.756 22.4587C196.5 22.7939 194.463 24.0186 193.109 25.849L189.01 31.3666C187.643 33.1972 187.063 35.4919 187.385 37.7479C187.72 40.0039 188.932 42.0408 190.763 43.4071C192.593 44.7607 194.901 45.3408 197.157 45.0057C199.413 44.6705 201.437 43.4587 202.803 41.6154Z" fill="black" fill-opacity="0.1"/>
<path d="M220.246 49.8003L214.626 53.7579L214.613 53.745C212.756 55.0599 211.48 57.0581 211.093 59.3012C210.694 61.5443 211.209 63.8519 212.524 65.7211C215.257 69.6015 220.62 70.5424 224.5 67.8095L230.121 63.8519V63.8648C231.99 62.5499 233.266 60.5517 233.666 58.3086C234.066 56.0654 233.55 53.745 232.235 51.8758C230.92 50.0066 228.922 48.7432 226.666 48.3564C224.423 47.9568 222.102 48.4853 220.246 49.8003Z" fill="black" fill-opacity="0.1"/>
<path d="M238.472 81.0631L231.898 83.0484C227.347 84.4148 224.782 89.2105 226.148 93.7612C227.527 98.299 232.323 100.877 236.861 99.4979L243.436 97.5127H243.448C247.973 96.1333 250.539 91.3505 249.172 86.8127C247.793 82.2749 243.01 79.7097 238.472 81.0631Z" fill="black" fill-opacity="0.1"/>
<path d="M239.105 116.283C236.823 116.192 234.593 117.03 232.93 118.603C231.267 120.176 230.313 122.355 230.287 124.649C230.158 129.393 233.91 133.338 238.654 133.467L245.525 133.647H245.757C250.463 133.647 254.278 129.857 254.343 125.165C254.395 120.472 250.682 116.592 245.99 116.463L239.105 116.283Z" fill="black" fill-opacity="0.1"/>
<path d="M132.324 24.0682C134.606 24.0682 136.798 23.1529 138.409 21.5415C140.021 19.93 140.923 17.7515 140.923 15.4697V8.59869C140.923 3.84177 137.081 0 132.324 0C127.58 0 123.739 3.84177 123.739 8.59869V15.4697C123.739 17.7515 124.641 19.9303 126.252 21.5415C127.864 23.1529 130.055 24.0682 132.324 24.0682Z" fill="black" fill-opacity="0.1"/>
<path d="M98.86 29.4574C101.619 29.4574 104.21 28.1296 105.821 25.8866C107.446 23.6564 107.884 20.7815 107.02 18.1647L104.855 11.6287C104.146 9.45001 102.612 7.64533 100.562 6.61401C98.5249 5.5827 96.153 5.40221 93.9742 6.12413C91.8084 6.84605 90.0166 8.40593 88.9852 10.4557C87.9668 12.5054 87.8121 14.8644 88.5469 17.0432L90.7127 23.5664H90.6998C91.8729 27.0857 95.1602 29.4574 98.86 29.4574Z" fill="black" fill-opacity="0.1"/>
<path d="M68.7816 45.0842C72.0303 45.0842 75.0081 43.2536 76.4648 40.353C77.9216 37.4524 77.6122 33.9717 75.6784 31.3675L71.5789 25.8499H71.566C68.7428 22.0471 63.3541 21.2478 59.5513 24.0838C55.7356 26.907 54.9492 32.2957 57.7852 36.0985L61.8847 41.6161C63.509 43.8077 66.0616 45.097 68.7816 45.0842Z" fill="black" fill-opacity="0.1"/>
<path d="M40.1896 67.8095C44.07 70.5425 49.4328 69.6015 52.1529 65.7211C54.8858 61.8408 53.9577 56.4779 50.0645 53.745L44.4439 49.7874V49.8003C42.5746 48.4854 40.2672 47.9568 38.0111 48.3564C35.768 48.7432 33.7568 50.0065 32.4549 51.8758C31.14 53.7451 30.6243 56.0654 31.024 58.3086C31.4107 60.5517 32.687 62.55 34.5562 63.8648L40.1896 67.8095Z" fill="black" fill-opacity="0.1"/>
<path d="M15.491 86.8116C14.8335 88.9903 15.0655 91.3365 16.1484 93.3477C17.2184 95.3588 19.049 96.8541 21.2406 97.5115L27.8153 99.4968C32.366 100.876 37.1615 98.2979 38.5281 93.7601C39.9075 89.2094 37.3292 84.4139 32.7914 83.0473L26.2167 81.062H26.2038C24.0251 80.3916 21.666 80.6366 19.6549 81.7065C17.6438 82.7894 16.1484 84.62 15.491 86.8116Z" fill="black" fill-opacity="0.1"/>
<path d="M10.3316 125.279C10.4605 129.933 14.2634 133.646 18.9174 133.646H19.1495L26.0205 133.465H26.0334C28.328 133.427 30.5068 132.473 32.0922 130.81C33.6779 129.16 34.5416 126.929 34.4772 124.647C34.4127 122.353 33.4329 120.174 31.77 118.601C30.0941 117.042 27.8638 116.204 25.5692 116.281L18.6982 116.462C13.9541 116.59 10.2157 120.535 10.3316 125.279Z" fill="black" fill-opacity="0.1"/>
</svg>
