<svg width="40" height="41" viewBox="0 0 40 41" fill="none" xmlns="http://www.w3.org/2000/svg">
<rect y="0.888916" width="40" height="40" rx="20" fill="#76AC3C"/>
<path d="M12.75 10.7639C11.5764 10.7639 10.625 11.7153 10.625 12.8889C10.625 14.0625 11.5764 15.0139 12.75 15.0139C13.9236 15.0139 14.875 14.0625 14.875 12.8889C14.875 11.7153 13.9236 10.7639 12.75 10.7639Z" fill="#0B3434"/>
<path d="M10.75 16.7639C10.681 16.7639 10.625 16.8199 10.625 16.8889V29.8889C10.625 29.958 10.681 30.0139 10.75 30.0139H14.75C14.819 30.0139 14.875 29.958 14.875 29.8889V16.8889C14.875 16.8199 14.819 16.7639 14.75 16.7639H10.75Z" fill="#0B3434"/>
<path d="M17.25 16.7639C17.181 16.7639 17.125 16.8199 17.125 16.8889V29.8889C17.125 29.958 17.181 30.0139 17.25 30.0139H21.25C21.319 30.0139 21.375 29.958 21.375 29.8889V22.8889C21.375 22.3916 21.5725 21.9147 21.9242 21.5631C22.2758 21.2115 22.7527 21.0139 23.25 21.0139C23.7473 21.0139 24.2242 21.2115 24.5758 21.5631C24.9275 21.9147 25.125 22.3916 25.125 22.8889V29.8889C25.125 29.958 25.181 30.0139 25.25 30.0139H29.25C29.319 30.0139 29.375 29.958 29.375 29.8889V21.2692C29.375 18.8424 27.2644 16.9439 24.8498 17.1634C24.1052 17.2311 23.369 17.4162 22.6815 17.7109L21.375 18.2708V16.8889C21.375 16.8199 21.319 16.7639 21.25 16.7639H17.25Z" fill="#0B3434"/>
</svg>
