<svg width="22" height="22" viewBox="0 0 22 22" fill="none" xmlns="http://www.w3.org/2000/svg">
<path d="M16.6401 13.1222C15.8239 13.1237 15.0128 12.9947 14.2374 12.74C13.8748 12.6134 13.4719 12.6987 13.1918 12.9614L11.6704 14.1092C10.0365 13.2888 8.71075 11.9634 7.89011 10.3296L9.00755 8.84482C9.28968 8.56249 9.39058 8.14632 9.26913 7.76614C9.01347 6.98968 8.88376 6.17733 8.88488 5.3599C8.88488 4.77584 8.41141 4.30237 7.82735 4.30237H5.35977C4.77572 4.30237 4.30225 4.77584 4.30225 5.3599C4.31001 12.1707 9.82929 17.69 16.6401 17.6977C17.2241 17.6977 17.6976 17.2242 17.6976 16.6402V14.1797C17.6976 13.5956 17.2241 13.1222 16.6401 13.1222Z" fill="#0D6032"/>
</svg>
