<svg width="41" height="41" viewBox="0 0 41 41" fill="none" xmlns="http://www.w3.org/2000/svg">
<rect x="0.666748" y="0.888916" width="40" height="40" rx="20" fill="#76AC3C"/>
<path d="M22.8667 11.7639C21.6401 11.7639 20.4637 12.2512 19.5964 13.1185C18.729 13.9859 18.2417 15.1623 18.2417 16.3889V18.9639H15.7667C15.6425 18.9639 15.5417 19.0647 15.5417 19.1889V22.5889C15.5417 22.7132 15.6425 22.8139 15.7667 22.8139H18.2417V29.7889C18.2417 29.9132 18.3425 30.0139 18.4667 30.0139H21.8667C21.991 30.0139 22.0917 29.9132 22.0917 29.7889V22.8139H24.5887C24.6919 22.8139 24.7819 22.7436 24.807 22.6435L25.657 19.2435C25.6925 19.1015 25.585 18.9639 25.4387 18.9639H22.0917V16.3889C22.0917 16.1834 22.1734 15.9862 22.3187 15.8409C22.4641 15.6956 22.6612 15.6139 22.8667 15.6139H25.4667C25.591 15.6139 25.6917 15.5132 25.6917 15.3889V11.9889C25.6917 11.8647 25.591 11.7639 25.4667 11.7639H22.8667Z" fill="#0B3434"/>
</svg>
