<svg width="560" height="560" viewBox="0 0 560 560" fill="none" xmlns="http://www.w3.org/2000/svg">
<g clip-path="url(#clip0_420_243)">
<!-- <rect width="560" height="560" fill="#76AC3C"/> -->
<!-- <rect width="560" height="560" fill="#76AC3C"/> -->
<path d="M358.124 318.92C359.699 319.858 361.644 320.955 363.847 322.198C373.5 327.644 388.091 335.876 398.087 345.66C404.339 351.779 410.279 359.843 411.359 369.722C412.507 380.229 407.924 390.088 398.729 398.848C382.866 413.961 363.829 426.073 339.206 426.073H219.792C195.169 426.073 176.132 413.961 160.269 398.848C151.074 390.088 146.491 380.229 147.639 369.722C148.719 359.843 154.659 351.779 160.911 345.66C170.907 335.876 185.498 327.644 195.151 322.198C197.353 320.955 199.299 319.858 200.874 318.92C249.002 290.262 309.996 290.262 358.124 318.92Z" fill="white"/>
<path d="M208.405 206.021C208.405 166.757 240.235 134.927 279.499 134.927C318.763 134.927 350.593 166.757 350.593 206.021C350.593 245.284 318.763 277.114 279.499 277.114C240.235 277.114 208.405 245.284 208.405 206.021Z" fill="white"/>
</g>
<defs>
<clipPath id="clip0_420_243">
<rect width="560" height="560" fill="white"/>
</clipPath>
</defs>
</svg>
