<svg width="243" height="197" viewBox="0 0 243 197" fill="none" xmlns="http://www.w3.org/2000/svg">
<path fill-rule="evenodd" clip-rule="evenodd" d="M147.5 114.722C134.248 114.722 122.293 122.709 117.219 134.952C112.145 147.212 114.946 161.296 124.325 170.675C133.704 180.054 147.788 182.855 160.048 177.781C172.292 172.708 180.278 160.752 180.278 147.5C180.278 138.81 176.821 130.472 170.675 124.326C164.529 118.18 156.19 114.722 147.5 114.722ZM147.5 57.3611C123.589 57.3611 100.669 66.8519 83.7677 83.7689C66.8507 100.67 57.3599 123.589 57.3599 147.501C57.3599 171.413 66.8507 194.332 83.7677 211.234C100.669 228.151 123.588 237.641 147.5 237.641C171.412 237.641 194.331 228.151 211.232 211.234C228.149 194.332 237.64 171.413 237.64 147.501C237.64 123.589 228.149 100.67 211.232 83.7689C194.331 66.8519 171.412 57.3611 147.5 57.3611ZM147.5 213.056C130.119 213.056 113.442 206.141 101.152 193.85C88.8626 181.558 81.9465 164.881 81.9465 147.502C81.9465 130.123 88.8606 113.444 101.152 101.154C113.444 88.8647 130.121 81.9485 147.5 81.9485C164.879 81.9485 181.558 88.8626 193.848 101.154C206.137 113.446 213.053 130.123 213.053 147.502C213.037 164.883 206.123 181.544 193.832 193.838C181.54 206.131 164.879 213.043 147.496 213.059L147.5 213.056ZM147.5 0C108.384 0 70.8697 15.5408 43.197 43.197C15.5408 70.8692 0 108.384 0 147.5C0 186.616 15.5408 224.13 43.197 251.803C70.8692 279.459 108.384 295 147.5 295C186.616 295 224.13 279.459 251.803 251.803C279.459 224.131 295 186.616 295 147.5C295 108.384 279.459 70.8697 251.803 43.197C224.131 15.5408 186.616 0 147.5 0ZM147.5 270.417C114.898 270.417 83.6407 257.469 60.5774 234.422C37.5306 211.359 24.5825 180.101 24.5825 147.499C24.5825 114.898 37.5306 83.6399 60.5774 60.5766C83.6403 37.5297 114.898 24.5817 147.5 24.5817C180.102 24.5817 211.359 37.5297 234.423 60.5766C257.469 83.6395 270.417 114.898 270.417 147.499C270.385 180.085 257.422 211.326 234.375 234.373C211.328 257.419 180.085 270.385 147.5 270.417Z" fill="black" fill-opacity="0.2"/>
</svg>
